<svg xmlns="http://www.w3.org/2000/svg" xmlns:xlink="http://www.w3.org/1999/xlink" width="200" zoomAndPan="magnify" viewBox="0 0 150 60" height="80" preserveAspectRatio="xMidYMid meet" version="1.0"><defs><g/></defs><g fill="#d8b36f" fill-opacity="1"><g transform="translate(4.125, 31.408261)"><g><path d="M 17.28125 -21.890625 C 17.195312 -21.046875 17.140625 -20.226562 17.109375 -19.4375 C 17.078125 -18.644531 17.0625 -18.039062 17.0625 -17.625 C 17.0625 -17.226562 17.070312 -16.847656 17.09375 -16.484375 C 17.113281 -16.128906 17.132812 -15.828125 17.15625 -15.578125 L 16.453125 -15.578125 C 16.285156 -17.003906 16.015625 -18.125 15.640625 -18.9375 C 15.273438 -19.75 14.773438 -20.328125 14.140625 -20.671875 C 13.515625 -21.015625 12.695312 -21.1875 11.6875 -21.1875 L 9.984375 -21.1875 C 9.367188 -21.1875 8.894531 -21.132812 8.5625 -21.03125 C 8.238281 -20.925781 8.019531 -20.707031 7.90625 -20.375 C 7.789062 -20.039062 7.734375 -19.535156 7.734375 -18.859375 L 7.734375 -3.03125 C 7.734375 -2.375 7.789062 -1.875 7.90625 -1.53125 C 8.019531 -1.1875 8.238281 -0.960938 8.5625 -0.859375 C 8.894531 -0.765625 9.367188 -0.71875 9.984375 -0.71875 L 11.75 -0.71875 C 12.800781 -0.71875 13.679688 -0.910156 14.390625 -1.296875 C 15.109375 -1.691406 15.679688 -2.335938 16.109375 -3.234375 C 16.546875 -4.128906 16.863281 -5.359375 17.0625 -6.921875 L 17.78125 -6.921875 C 17.71875 -6.285156 17.6875 -5.460938 17.6875 -4.453125 C 17.6875 -4.015625 17.703125 -3.382812 17.734375 -2.5625 C 17.765625 -1.738281 17.820312 -0.882812 17.90625 0 C 16.851562 -0.0390625 15.664062 -0.0664062 14.34375 -0.078125 C 13.03125 -0.0859375 11.859375 -0.09375 10.828125 -0.09375 C 10.347656 -0.09375 9.722656 -0.09375 8.953125 -0.09375 C 8.179688 -0.09375 7.347656 -0.0859375 6.453125 -0.078125 C 5.554688 -0.0664062 4.644531 -0.0546875 3.71875 -0.046875 C 2.800781 -0.0351562 1.929688 -0.0195312 1.109375 0 L 1.109375 -0.625 C 1.796875 -0.664062 2.304688 -0.742188 2.640625 -0.859375 C 2.984375 -0.984375 3.210938 -1.234375 3.328125 -1.609375 C 3.441406 -1.984375 3.5 -2.539062 3.5 -3.28125 L 3.5 -18.609375 C 3.5 -19.378906 3.441406 -19.941406 3.328125 -20.296875 C 3.210938 -20.660156 2.984375 -20.910156 2.640625 -21.046875 C 2.304688 -21.179688 1.796875 -21.257812 1.109375 -21.28125 L 1.109375 -21.890625 C 1.929688 -21.867188 2.800781 -21.851562 3.71875 -21.84375 C 4.644531 -21.832031 5.554688 -21.820312 6.453125 -21.8125 C 7.347656 -21.800781 8.179688 -21.796875 8.953125 -21.796875 C 9.722656 -21.796875 10.347656 -21.796875 10.828125 -21.796875 C 11.773438 -21.796875 12.847656 -21.800781 14.046875 -21.8125 C 15.253906 -21.820312 16.332031 -21.847656 17.28125 -21.890625 Z M 12.3125 -11.3125 C 12.3125 -11.3125 12.3125 -11.207031 12.3125 -11 C 12.3125 -10.800781 12.3125 -10.703125 12.3125 -10.703125 L 6.796875 -10.703125 C 6.796875 -10.703125 6.796875 -10.800781 6.796875 -11 C 6.796875 -11.207031 6.796875 -11.3125 6.796875 -11.3125 Z M 13.203125 -15.40625 C 13.117188 -14.226562 13.082031 -13.328125 13.09375 -12.703125 C 13.101562 -12.085938 13.109375 -11.523438 13.109375 -11.015625 C 13.109375 -10.492188 13.117188 -9.921875 13.140625 -9.296875 C 13.160156 -8.679688 13.210938 -7.789062 13.296875 -6.625 L 12.578125 -6.625 C 12.484375 -7.320312 12.328125 -7.984375 12.109375 -8.609375 C 11.890625 -9.242188 11.546875 -9.75 11.078125 -10.125 C 10.617188 -10.507812 9.957031 -10.703125 9.09375 -10.703125 L 9.09375 -11.3125 C 9.726562 -11.3125 10.242188 -11.445312 10.640625 -11.71875 C 11.046875 -11.988281 11.375 -12.332031 11.625 -12.75 C 11.875 -13.175781 12.066406 -13.617188 12.203125 -14.078125 C 12.335938 -14.546875 12.4375 -14.988281 12.5 -15.40625 Z M 13.203125 -15.40625 "/></g></g></g><g fill="#d8b36f" fill-opacity="1"><g transform="translate(23.322623, 31.408261)"><g><path d="M 15.46875 -15.984375 L 15.46875 -15.34375 C 15.070312 -15.257812 14.703125 -15.039062 14.359375 -14.6875 C 14.023438 -14.332031 13.703125 -13.710938 13.390625 -12.828125 L 8.65625 0.09375 C 8.40625 0.0703125 8.15625 0.0625 7.90625 0.0625 C 7.664062 0.0625 7.410156 0.0703125 7.140625 0.09375 L 1.578125 -13.609375 C 1.265625 -14.390625 0.941406 -14.875 0.609375 -15.0625 C 0.285156 -15.25 0.0078125 -15.34375 -0.21875 -15.34375 L -0.21875 -15.984375 C 0.363281 -15.941406 0.960938 -15.90625 1.578125 -15.875 C 2.191406 -15.84375 2.875 -15.828125 3.625 -15.828125 C 4.257812 -15.828125 4.929688 -15.84375 5.640625 -15.875 C 6.347656 -15.90625 7.015625 -15.941406 7.640625 -15.984375 L 7.640625 -15.34375 C 7.179688 -15.34375 6.769531 -15.3125 6.40625 -15.25 C 6.050781 -15.1875 5.8125 -15.023438 5.6875 -14.765625 C 5.5625 -14.503906 5.613281 -14.054688 5.84375 -13.421875 L 9.5625 -3.796875 L 9.28125 -3.46875 L 12.09375 -11.09375 C 12.4375 -12.0625 12.578125 -12.84375 12.515625 -13.4375 C 12.460938 -14.039062 12.242188 -14.5 11.859375 -14.8125 C 11.472656 -15.125 10.929688 -15.300781 10.234375 -15.34375 L 10.234375 -15.984375 C 10.585938 -15.960938 10.921875 -15.941406 11.234375 -15.921875 C 11.554688 -15.898438 11.875 -15.882812 12.1875 -15.875 C 12.507812 -15.863281 12.816406 -15.859375 13.109375 -15.859375 C 13.546875 -15.859375 13.972656 -15.867188 14.390625 -15.890625 C 14.816406 -15.910156 15.175781 -15.941406 15.46875 -15.984375 Z M 15.46875 -15.984375 "/></g></g></g><g fill="#d8b36f" fill-opacity="1"><g transform="translate(38.501425, 31.408261)"><g><path d="M 5.109375 0.21875 C 4.210938 0.21875 3.457031 0.0507812 2.84375 -0.28125 C 2.226562 -0.625 1.765625 -1.085938 1.453125 -1.671875 C 1.140625 -2.265625 0.984375 -2.925781 0.984375 -3.65625 C 0.984375 -4.539062 1.1875 -5.265625 1.59375 -5.828125 C 2.007812 -6.390625 2.539062 -6.84375 3.1875 -7.1875 C 3.84375 -7.53125 4.53125 -7.816406 5.25 -8.046875 C 5.976562 -8.285156 6.660156 -8.515625 7.296875 -8.734375 C 7.929688 -8.953125 8.457031 -9.203125 8.875 -9.484375 C 9.289062 -9.773438 9.5 -10.160156 9.5 -10.640625 L 9.5 -12.890625 C 9.5 -13.554688 9.398438 -14.097656 9.203125 -14.515625 C 9.003906 -14.941406 8.710938 -15.257812 8.328125 -15.46875 C 7.953125 -15.6875 7.472656 -15.796875 6.890625 -15.796875 C 6.460938 -15.796875 6.007812 -15.734375 5.53125 -15.609375 C 5.0625 -15.492188 4.671875 -15.257812 4.359375 -14.90625 C 4.890625 -14.757812 5.304688 -14.488281 5.609375 -14.09375 C 5.910156 -13.707031 6.0625 -13.234375 6.0625 -12.671875 C 6.0625 -12.035156 5.847656 -11.535156 5.421875 -11.171875 C 5.003906 -10.816406 4.472656 -10.640625 3.828125 -10.640625 C 3.148438 -10.640625 2.632812 -10.851562 2.28125 -11.28125 C 1.9375 -11.71875 1.765625 -12.222656 1.765625 -12.796875 C 1.765625 -13.378906 1.90625 -13.859375 2.1875 -14.234375 C 2.476562 -14.617188 2.882812 -14.96875 3.40625 -15.28125 C 3.914062 -15.625 4.570312 -15.898438 5.375 -16.109375 C 6.1875 -16.316406 7.066406 -16.421875 8.015625 -16.421875 C 8.921875 -16.421875 9.722656 -16.320312 10.421875 -16.125 C 11.117188 -15.925781 11.71875 -15.582031 12.21875 -15.09375 C 12.707031 -14.613281 13.023438 -14.023438 13.171875 -13.328125 C 13.316406 -12.628906 13.390625 -11.773438 13.390625 -10.765625 L 13.390625 -2.28125 C 13.390625 -1.769531 13.453125 -1.40625 13.578125 -1.1875 C 13.703125 -0.96875 13.894531 -0.859375 14.15625 -0.859375 C 14.363281 -0.859375 14.5625 -0.910156 14.75 -1.015625 C 14.9375 -1.117188 15.144531 -1.265625 15.375 -1.453125 L 15.703125 -0.921875 C 15.253906 -0.578125 14.78125 -0.300781 14.28125 -0.09375 C 13.789062 0.113281 13.195312 0.21875 12.5 0.21875 C 11.769531 0.21875 11.191406 0.113281 10.765625 -0.09375 C 10.347656 -0.300781 10.039062 -0.597656 9.84375 -0.984375 C 9.65625 -1.378906 9.550781 -1.84375 9.53125 -2.375 C 9.03125 -1.550781 8.421875 -0.910156 7.703125 -0.453125 C 6.984375 -0.00390625 6.117188 0.21875 5.109375 0.21875 Z M 6.953125 -1.515625 C 7.453125 -1.515625 7.910156 -1.644531 8.328125 -1.90625 C 8.753906 -2.175781 9.144531 -2.582031 9.5 -3.125 L 9.5 -9.375 C 9.289062 -9.0625 8.992188 -8.78125 8.609375 -8.53125 C 8.234375 -8.28125 7.828125 -8.03125 7.390625 -7.78125 C 6.953125 -7.539062 6.539062 -7.257812 6.15625 -6.9375 C 5.78125 -6.625 5.460938 -6.234375 5.203125 -5.765625 C 4.953125 -5.304688 4.828125 -4.710938 4.828125 -3.984375 C 4.828125 -3.179688 5.019531 -2.566406 5.40625 -2.140625 C 5.800781 -1.722656 6.316406 -1.515625 6.953125 -1.515625 Z M 6.953125 -1.515625 "/></g></g></g><g fill="#d8b36f" fill-opacity="1"><g transform="translate(54.082108, 31.408261)"><g/></g></g><g fill="#d8b36f" fill-opacity="1"><g transform="translate(61.470574, 31.408261)"><g><path d="M 14.15625 0 L 14.15625 -0.625 C 14.84375 -0.664062 15.351562 -0.742188 15.6875 -0.859375 C 16.03125 -0.984375 16.257812 -1.234375 16.375 -1.609375 C 16.488281 -1.984375 16.546875 -2.539062 16.546875 -3.28125 L 16.546875 -18.609375 C 16.546875 -19.378906 16.488281 -19.941406 16.375 -20.296875 C 16.257812 -20.660156 16.03125 -20.910156 15.6875 -21.046875 C 15.351562 -21.179688 14.84375 -21.257812 14.15625 -21.28125 L 14.15625 -21.890625 C 14.71875 -21.867188 15.410156 -21.847656 16.234375 -21.828125 C 17.054688 -21.804688 17.878906 -21.796875 18.703125 -21.796875 C 19.609375 -21.796875 20.457031 -21.804688 21.25 -21.828125 C 22.050781 -21.847656 22.6875 -21.867188 23.15625 -21.890625 L 23.15625 -21.28125 C 22.5 -21.257812 22 -21.179688 21.65625 -21.046875 C 21.320312 -20.910156 21.09375 -20.660156 20.96875 -20.296875 C 20.84375 -19.941406 20.78125 -19.378906 20.78125 -18.609375 L 20.78125 -3.28125 C 20.78125 -2.539062 20.84375 -1.984375 20.96875 -1.609375 C 21.09375 -1.234375 21.320312 -0.984375 21.65625 -0.859375 C 22 -0.742188 22.5 -0.664062 23.15625 -0.625 L 23.15625 0 C 22.6875 -0.0390625 22.050781 -0.0664062 21.25 -0.078125 C 20.457031 -0.0859375 19.609375 -0.09375 18.703125 -0.09375 C 17.878906 -0.09375 17.054688 -0.0859375 16.234375 -0.078125 C 15.410156 -0.0664062 14.71875 -0.0390625 14.15625 0 Z M 1.109375 0 L 1.109375 -0.625 C 1.796875 -0.664062 2.304688 -0.742188 2.640625 -0.859375 C 2.984375 -0.984375 3.210938 -1.234375 3.328125 -1.609375 C 3.441406 -1.984375 3.5 -2.539062 3.5 -3.28125 L 3.5 -18.609375 C 3.5 -19.378906 3.441406 -19.941406 3.328125 -20.296875 C 3.210938 -20.660156 2.984375 -20.910156 2.640625 -21.046875 C 2.304688 -21.179688 1.796875 -21.257812 1.109375 -21.28125 L 1.109375 -21.890625 C 1.628906 -21.867188 2.289062 -21.847656 3.09375 -21.828125 C 3.894531 -21.804688 4.757812 -21.796875 5.6875 -21.796875 C 6.507812 -21.796875 7.320312 -21.804688 8.125 -21.828125 C 8.9375 -21.847656 9.597656 -21.867188 10.109375 -21.890625 L 10.109375 -21.28125 C 9.453125 -21.257812 8.953125 -21.179688 8.609375 -21.046875 C 8.265625 -20.910156 8.03125 -20.660156 7.90625 -20.296875 C 7.789062 -19.941406 7.734375 -19.378906 7.734375 -18.609375 L 7.734375 -3.28125 C 7.734375 -2.539062 7.789062 -1.984375 7.90625 -1.609375 C 8.03125 -1.234375 8.265625 -0.984375 8.609375 -0.859375 C 8.953125 -0.742188 9.453125 -0.664062 10.109375 -0.625 L 10.109375 0 C 9.597656 -0.0390625 8.9375 -0.0664062 8.125 -0.078125 C 7.320312 -0.0859375 6.507812 -0.09375 5.6875 -0.09375 C 4.757812 -0.09375 3.894531 -0.0859375 3.09375 -0.078125 C 2.289062 -0.0664062 1.628906 -0.0390625 1.109375 0 Z M 6.03125 -10.703125 L 6.03125 -11.3125 L 18.25 -11.3125 L 18.25 -10.703125 Z M 6.03125 -10.703125 "/></g></g></g><g fill="#d8b36f" fill-opacity="1"><g transform="translate(85.181656, 31.408261)"><g><path d="M 8.65625 -16.421875 C 10.082031 -16.421875 11.34375 -16.132812 12.4375 -15.5625 C 13.539062 -15 14.414062 -14.097656 15.0625 -12.859375 C 15.71875 -11.628906 16.046875 -10.003906 16.046875 -7.984375 C 16.046875 -5.960938 15.71875 -4.332031 15.0625 -3.09375 C 14.414062 -1.851562 13.539062 -0.953125 12.4375 -0.390625 C 11.34375 0.160156 10.082031 0.4375 8.65625 0.4375 C 7.238281 0.4375 5.972656 0.160156 4.859375 -0.390625 C 3.742188 -0.953125 2.863281 -1.851562 2.21875 -3.09375 C 1.582031 -4.332031 1.265625 -5.960938 1.265625 -7.984375 C 1.265625 -10.003906 1.582031 -11.628906 2.21875 -12.859375 C 2.863281 -14.097656 3.742188 -15 4.859375 -15.5625 C 5.972656 -16.132812 7.238281 -16.421875 8.65625 -16.421875 Z M 8.65625 -15.796875 C 7.6875 -15.796875 6.894531 -15.179688 6.28125 -13.953125 C 5.675781 -12.734375 5.375 -10.742188 5.375 -7.984375 C 5.375 -5.210938 5.675781 -3.21875 6.28125 -2 C 6.894531 -0.789062 7.6875 -0.1875 8.65625 -0.1875 C 9.601562 -0.1875 10.382812 -0.789062 11 -2 C 11.625 -3.21875 11.9375 -5.210938 11.9375 -7.984375 C 11.9375 -10.742188 11.625 -12.734375 11 -13.953125 C 10.382812 -15.179688 9.601562 -15.796875 8.65625 -15.796875 Z M 8.65625 -15.796875 "/></g></g></g><g fill="#d8b36f" fill-opacity="1"><g transform="translate(102.462623, 31.408261)"><g><path d="M 11.6875 -16.421875 C 12.488281 -16.421875 13.160156 -16.304688 13.703125 -16.078125 C 14.253906 -15.847656 14.6875 -15.5625 15 -15.21875 C 15.363281 -14.820312 15.617188 -14.296875 15.765625 -13.640625 C 15.910156 -12.992188 15.984375 -12.175781 15.984375 -11.1875 L 15.984375 -2.875 C 15.984375 -2.007812 16.132812 -1.421875 16.4375 -1.109375 C 16.738281 -0.804688 17.25 -0.65625 17.96875 -0.65625 L 17.96875 0 C 17.59375 -0.0195312 17.035156 -0.046875 16.296875 -0.078125 C 15.554688 -0.109375 14.832031 -0.125 14.125 -0.125 C 13.382812 -0.125 12.671875 -0.109375 11.984375 -0.078125 C 11.296875 -0.046875 10.773438 -0.0195312 10.421875 0 L 10.421875 -0.65625 C 11.015625 -0.65625 11.441406 -0.804688 11.703125 -1.109375 C 11.960938 -1.421875 12.09375 -2.007812 12.09375 -2.875 L 12.09375 -12.25 C 12.09375 -12.800781 12.050781 -13.296875 11.96875 -13.734375 C 11.882812 -14.179688 11.707031 -14.535156 11.4375 -14.796875 C 11.175781 -15.054688 10.765625 -15.1875 10.203125 -15.1875 C 9.566406 -15.1875 8.988281 -15 8.46875 -14.625 C 7.957031 -14.25 7.550781 -13.738281 7.25 -13.09375 C 6.945312 -12.445312 6.796875 -11.722656 6.796875 -10.921875 L 6.796875 -2.875 C 6.796875 -2.007812 6.921875 -1.421875 7.171875 -1.109375 C 7.421875 -0.804688 7.851562 -0.65625 8.46875 -0.65625 L 8.46875 0 C 8.125 -0.0195312 7.613281 -0.046875 6.9375 -0.078125 C 6.269531 -0.109375 5.585938 -0.125 4.890625 -0.125 C 4.117188 -0.125 3.34375 -0.109375 2.5625 -0.078125 C 1.78125 -0.046875 1.191406 -0.0195312 0.796875 0 L 0.796875 -0.65625 C 1.566406 -0.65625 2.109375 -0.804688 2.421875 -1.109375 C 2.742188 -1.421875 2.90625 -2.007812 2.90625 -2.875 L 2.90625 -12.609375 C 2.90625 -13.535156 2.753906 -14.222656 2.453125 -14.671875 C 2.160156 -15.117188 1.609375 -15.34375 0.796875 -15.34375 L 0.796875 -15.984375 C 1.460938 -15.921875 2.101562 -15.890625 2.71875 -15.890625 C 3.476562 -15.890625 4.203125 -15.925781 4.890625 -16 C 5.585938 -16.070312 6.222656 -16.179688 6.796875 -16.328125 L 6.796875 -13.234375 C 7.316406 -14.367188 8.007812 -15.179688 8.875 -15.671875 C 9.738281 -16.171875 10.675781 -16.421875 11.6875 -16.421875 Z M 21 -16.421875 C 21.800781 -16.421875 22.472656 -16.304688 23.015625 -16.078125 C 23.566406 -15.847656 23.992188 -15.5625 24.296875 -15.21875 C 24.671875 -14.820312 24.929688 -14.296875 25.078125 -13.640625 C 25.222656 -12.992188 25.296875 -12.175781 25.296875 -11.1875 L 25.296875 -2.875 C 25.296875 -2.007812 25.453125 -1.421875 25.765625 -1.109375 C 26.085938 -0.804688 26.628906 -0.65625 27.390625 -0.65625 L 27.390625 0 C 27.023438 -0.0195312 26.453125 -0.046875 25.671875 -0.078125 C 24.898438 -0.109375 24.15625 -0.125 23.4375 -0.125 C 22.695312 -0.125 21.976562 -0.109375 21.28125 -0.078125 C 20.59375 -0.046875 20.078125 -0.0195312 19.734375 0 L 19.734375 -0.65625 C 20.328125 -0.65625 20.75 -0.804688 21 -1.109375 C 21.257812 -1.421875 21.390625 -2.007812 21.390625 -2.875 L 21.390625 -12.25 C 21.390625 -12.800781 21.34375 -13.296875 21.25 -13.734375 C 21.164062 -14.179688 20.976562 -14.535156 20.6875 -14.796875 C 20.394531 -15.054688 19.960938 -15.1875 19.390625 -15.1875 C 18.742188 -15.1875 18.164062 -14.988281 17.65625 -14.59375 C 17.144531 -14.195312 16.738281 -13.675781 16.4375 -13.03125 C 16.132812 -12.382812 15.972656 -11.660156 15.953125 -10.859375 L 15.796875 -13.078125 C 16.359375 -14.359375 17.101562 -15.234375 18.03125 -15.703125 C 18.957031 -16.179688 19.945312 -16.421875 21 -16.421875 Z M 21 -16.421875 "/></g></g></g><g fill="#d8b36f" fill-opacity="1"><g transform="translate(130.254369, 31.408261)"><g><path d="M 8.59375 -16.421875 C 10.40625 -16.421875 11.828125 -15.875 12.859375 -14.78125 C 13.890625 -13.6875 14.40625 -11.945312 14.40625 -9.5625 L 3.984375 -9.5625 L 3.953125 -10.140625 L 10.828125 -10.140625 C 10.867188 -11.148438 10.804688 -12.082031 10.640625 -12.9375 C 10.472656 -13.789062 10.207031 -14.472656 9.84375 -14.984375 C 9.488281 -15.503906 9.019531 -15.765625 8.4375 -15.765625 C 7.65625 -15.765625 6.972656 -15.304688 6.390625 -14.390625 C 5.816406 -13.472656 5.457031 -11.972656 5.3125 -9.890625 L 5.4375 -9.703125 C 5.394531 -9.441406 5.367188 -9.15625 5.359375 -8.84375 C 5.347656 -8.53125 5.34375 -8.222656 5.34375 -7.921875 C 5.34375 -6.492188 5.550781 -5.316406 5.96875 -4.390625 C 6.382812 -3.460938 6.921875 -2.78125 7.578125 -2.34375 C 8.234375 -1.914062 8.910156 -1.703125 9.609375 -1.703125 C 10.085938 -1.703125 10.570312 -1.773438 11.0625 -1.921875 C 11.5625 -2.066406 12.046875 -2.332031 12.515625 -2.71875 C 12.992188 -3.113281 13.429688 -3.671875 13.828125 -4.390625 L 14.40625 -4.140625 C 14.175781 -3.421875 13.800781 -2.703125 13.28125 -1.984375 C 12.757812 -1.273438 12.082031 -0.691406 11.25 -0.234375 C 10.425781 0.210938 9.457031 0.4375 8.34375 0.4375 C 6.945312 0.4375 5.710938 0.128906 4.640625 -0.484375 C 3.566406 -1.109375 2.726562 -2.035156 2.125 -3.265625 C 1.53125 -4.492188 1.234375 -5.992188 1.234375 -7.765625 C 1.234375 -9.640625 1.546875 -11.210938 2.171875 -12.484375 C 2.804688 -13.765625 3.679688 -14.738281 4.796875 -15.40625 C 5.910156 -16.082031 7.175781 -16.421875 8.59375 -16.421875 Z M 8.59375 -16.421875 "/></g></g></g><g fill="#6b6b6b" fill-opacity="1"><g transform="translate(10.279551, 47.552779)"><g><path d="M 1.359375 0 L 1.359375 -8.734375 L 6.015625 -8.734375 L 6.015625 -8.453125 L 1.640625 -8.453125 L 1.640625 -4.5 L 5.765625 -4.5 L 5.765625 -4.234375 L 1.640625 -4.234375 L 1.640625 -0.265625 L 6.140625 -0.265625 L 6.140625 0 Z M 1.359375 0 "/></g></g></g><g fill="#6b6b6b" fill-opacity="1"><g transform="translate(17.285154, 47.552779)"><g><path d="M 1.4375 -4.390625 L 1.4375 0 L 1.15625 0 L 1.15625 -6.546875 L 1.4375 -6.546875 L 1.4375 -5.5 L 1.46875 -5.5 C 1.625 -5.84375 1.875 -6.113281 2.21875 -6.3125 C 2.570312 -6.519531 2.972656 -6.625 3.421875 -6.625 C 3.859375 -6.625 4.242188 -6.53125 4.578125 -6.34375 C 4.921875 -6.15625 5.1875 -5.890625 5.375 -5.546875 C 5.5625 -5.210938 5.65625 -4.828125 5.65625 -4.390625 L 5.65625 0 L 5.390625 0 L 5.390625 -4.390625 C 5.390625 -4.972656 5.207031 -5.445312 4.84375 -5.8125 C 4.476562 -6.175781 4.003906 -6.359375 3.421875 -6.359375 C 3.035156 -6.359375 2.691406 -6.273438 2.390625 -6.109375 C 2.097656 -5.941406 1.863281 -5.707031 1.6875 -5.40625 C 1.519531 -5.113281 1.4375 -4.773438 1.4375 -4.390625 Z M 1.4375 -4.390625 "/></g></g></g><g fill="#6b6b6b" fill-opacity="1"><g transform="translate(24.103258, 47.552779)"><g><path d="M 3.609375 0.140625 C 3.035156 0.140625 2.535156 -0.0078125 2.109375 -0.3125 C 1.679688 -0.613281 1.347656 -1.019531 1.109375 -1.53125 C 0.878906 -2.039062 0.765625 -2.613281 0.765625 -3.25 C 0.765625 -3.894531 0.882812 -4.472656 1.125 -4.984375 C 1.363281 -5.492188 1.6875 -5.894531 2.09375 -6.1875 C 2.5 -6.488281 2.960938 -6.640625 3.484375 -6.640625 C 3.984375 -6.640625 4.4375 -6.5 4.84375 -6.21875 C 5.25 -5.9375 5.566406 -5.5625 5.796875 -5.09375 C 6.035156 -4.625 6.15625 -4.109375 6.15625 -3.546875 L 6.15625 -3.265625 L 1.046875 -3.265625 C 1.046875 -2.703125 1.144531 -2.179688 1.34375 -1.703125 C 1.539062 -1.234375 1.832031 -0.851562 2.21875 -0.5625 C 2.601562 -0.28125 3.066406 -0.140625 3.609375 -0.140625 C 4.015625 -0.140625 4.351562 -0.207031 4.625 -0.34375 C 4.90625 -0.488281 5.128906 -0.648438 5.296875 -0.828125 C 5.460938 -1.015625 5.582031 -1.175781 5.65625 -1.3125 L 5.875 -1.15625 C 5.78125 -0.988281 5.632812 -0.804688 5.4375 -0.609375 C 5.25 -0.410156 5.003906 -0.234375 4.703125 -0.078125 C 4.398438 0.0664062 4.035156 0.140625 3.609375 0.140625 Z M 1.046875 -3.546875 L 5.875 -3.546875 C 5.875 -4.066406 5.765625 -4.539062 5.546875 -4.96875 C 5.335938 -5.394531 5.050781 -5.734375 4.6875 -5.984375 C 4.320312 -6.242188 3.921875 -6.375 3.484375 -6.375 C 3.046875 -6.375 2.648438 -6.25 2.296875 -6 C 1.941406 -5.757812 1.65625 -5.425781 1.4375 -5 C 1.21875 -4.570312 1.085938 -4.085938 1.046875 -3.546875 Z M 1.046875 -3.546875 "/></g></g></g><g fill="#6b6b6b" fill-opacity="1"><g transform="translate(31.023637, 47.552779)"><g><path d="M 1.15625 0 L 1.15625 -6.546875 L 1.4375 -6.546875 L 1.4375 -5.5 L 1.46875 -5.5 C 1.625 -5.84375 1.875 -6.113281 2.21875 -6.3125 C 2.570312 -6.519531 2.972656 -6.625 3.421875 -6.625 C 3.566406 -6.625 3.703125 -6.613281 3.828125 -6.59375 C 3.953125 -6.570312 4.066406 -6.546875 4.171875 -6.515625 L 4.078125 -6.25 C 3.890625 -6.320312 3.671875 -6.359375 3.421875 -6.359375 C 3.035156 -6.359375 2.691406 -6.273438 2.390625 -6.109375 C 2.097656 -5.941406 1.863281 -5.707031 1.6875 -5.40625 C 1.519531 -5.113281 1.4375 -4.773438 1.4375 -4.390625 L 1.4375 0 Z M 1.15625 0 "/></g></g></g><g fill="#6b6b6b" fill-opacity="1"><g transform="translate(35.165643, 47.552779)"><g><path d="M 3.375 2.59375 C 2.820312 2.59375 2.335938 2.484375 1.921875 2.265625 C 1.515625 2.046875 1.226562 1.71875 1.0625 1.28125 L 1.3125 1.171875 C 1.457031 1.554688 1.710938 1.84375 2.078125 2.03125 C 2.453125 2.21875 2.882812 2.3125 3.375 2.3125 C 4.050781 2.3125 4.582031 2.128906 4.96875 1.765625 C 5.351562 1.410156 5.546875 0.867188 5.546875 0.140625 L 5.546875 -1.640625 L 5.5 -1.640625 C 5.332031 -1.085938 5.039062 -0.675781 4.625 -0.40625 C 4.21875 -0.132812 3.773438 0 3.296875 0 C 2.773438 0 2.328125 -0.132812 1.953125 -0.40625 C 1.578125 -0.6875 1.285156 -1.070312 1.078125 -1.5625 C 0.867188 -2.050781 0.765625 -2.613281 0.765625 -3.25 C 0.765625 -3.90625 0.863281 -4.488281 1.0625 -5 C 1.269531 -5.507812 1.5625 -5.910156 1.9375 -6.203125 C 2.320312 -6.492188 2.773438 -6.640625 3.296875 -6.640625 C 3.816406 -6.640625 4.269531 -6.476562 4.65625 -6.15625 C 5.039062 -5.84375 5.320312 -5.414062 5.5 -4.875 L 5.546875 -4.875 L 5.546875 -6.546875 L 5.8125 -6.546875 L 5.8125 0.140625 C 5.8125 0.941406 5.59375 1.550781 5.15625 1.96875 C 4.726562 2.382812 4.132812 2.59375 3.375 2.59375 Z M 3.296875 -0.265625 C 3.972656 -0.265625 4.515625 -0.53125 4.921875 -1.0625 C 5.335938 -1.601562 5.546875 -2.332031 5.546875 -3.25 C 5.546875 -3.84375 5.453125 -4.375 5.265625 -4.84375 C 5.085938 -5.3125 4.828125 -5.679688 4.484375 -5.953125 C 4.148438 -6.234375 3.753906 -6.375 3.296875 -6.375 C 2.828125 -6.375 2.421875 -6.234375 2.078125 -5.953125 C 1.742188 -5.679688 1.488281 -5.3125 1.3125 -4.84375 C 1.132812 -4.375 1.046875 -3.84375 1.046875 -3.25 C 1.046875 -2.664062 1.132812 -2.148438 1.3125 -1.703125 C 1.5 -1.253906 1.757812 -0.898438 2.09375 -0.640625 C 2.425781 -0.390625 2.828125 -0.265625 3.296875 -0.265625 Z M 3.296875 -0.265625 "/></g></g></g><g fill="#6b6b6b" fill-opacity="1"><g transform="translate(42.171246, 47.552779)"><g><path d="M 1.421875 2.59375 C 1.191406 2.59375 0.945312 2.535156 0.6875 2.421875 L 0.78125 2.1875 C 1.632812 2.550781 2.242188 2.222656 2.609375 1.203125 L 3 0.125 L 0.609375 -6.546875 L 0.90625 -6.546875 L 3.125 -0.34375 L 3.15625 -0.34375 L 5.375 -6.546875 L 5.65625 -6.546875 L 2.859375 1.3125 C 2.546875 2.164062 2.066406 2.59375 1.421875 2.59375 Z M 1.421875 2.59375 "/></g></g></g><g fill="#6b6b6b" fill-opacity="1"><g transform="translate(48.447518, 47.552779)"><g/></g></g><g fill="#6b6b6b" fill-opacity="1"><g transform="translate(51.822483, 47.552779)"><g/></g></g><g fill="#6b6b6b" fill-opacity="1"><g transform="translate(55.197518, 47.552779)"><g><path d="M 7.828125 -6 L 7.53125 -6 C 7.476562 -6.289062 7.375 -6.585938 7.21875 -6.890625 C 7.0625 -7.191406 6.851562 -7.46875 6.59375 -7.71875 C 6.332031 -7.976562 6.023438 -8.1875 5.671875 -8.34375 C 5.328125 -8.5 4.929688 -8.578125 4.484375 -8.578125 C 3.890625 -8.578125 3.335938 -8.410156 2.828125 -8.078125 C 2.316406 -7.753906 1.90625 -7.28125 1.59375 -6.65625 C 1.289062 -6.03125 1.140625 -5.265625 1.140625 -4.359375 C 1.140625 -3.441406 1.289062 -2.671875 1.59375 -2.046875 C 1.90625 -1.421875 2.316406 -0.945312 2.828125 -0.625 C 3.335938 -0.3125 3.890625 -0.15625 4.484375 -0.15625 C 4.929688 -0.15625 5.328125 -0.234375 5.671875 -0.390625 C 6.023438 -0.546875 6.332031 -0.75 6.59375 -1 C 6.851562 -1.25 7.0625 -1.523438 7.21875 -1.828125 C 7.375 -2.128906 7.476562 -2.429688 7.53125 -2.734375 L 7.828125 -2.734375 C 7.773438 -2.421875 7.664062 -2.097656 7.5 -1.765625 C 7.332031 -1.441406 7.113281 -1.132812 6.84375 -0.84375 C 6.570312 -0.550781 6.238281 -0.316406 5.84375 -0.140625 C 5.445312 0.0351562 4.992188 0.125 4.484375 0.125 C 3.765625 0.125 3.132812 -0.0625 2.59375 -0.4375 C 2.050781 -0.8125 1.628906 -1.335938 1.328125 -2.015625 C 1.023438 -2.691406 0.875 -3.472656 0.875 -4.359375 C 0.875 -5.253906 1.023438 -6.035156 1.328125 -6.703125 C 1.628906 -7.378906 2.050781 -7.90625 2.59375 -8.28125 C 3.132812 -8.65625 3.765625 -8.84375 4.484375 -8.84375 C 4.992188 -8.84375 5.445312 -8.753906 5.84375 -8.578125 C 6.238281 -8.398438 6.570312 -8.171875 6.84375 -7.890625 C 7.113281 -7.609375 7.332031 -7.300781 7.5 -6.96875 C 7.664062 -6.632812 7.773438 -6.3125 7.828125 -6 Z M 7.828125 -6 "/></g></g></g><g fill="#6b6b6b" fill-opacity="1"><g transform="translate(63.873558, 47.552779)"><g><path d="M 1.15625 0 L 1.15625 -6.546875 L 1.4375 -6.546875 L 1.4375 -5.5 L 1.46875 -5.5 C 1.625 -5.84375 1.875 -6.113281 2.21875 -6.3125 C 2.570312 -6.519531 2.972656 -6.625 3.421875 -6.625 C 3.566406 -6.625 3.703125 -6.613281 3.828125 -6.59375 C 3.953125 -6.570312 4.066406 -6.546875 4.171875 -6.515625 L 4.078125 -6.25 C 3.890625 -6.320312 3.671875 -6.359375 3.421875 -6.359375 C 3.035156 -6.359375 2.691406 -6.273438 2.390625 -6.109375 C 2.097656 -5.941406 1.863281 -5.707031 1.6875 -5.40625 C 1.519531 -5.113281 1.4375 -4.773438 1.4375 -4.390625 L 1.4375 0 Z M 1.15625 0 "/></g></g></g><g fill="#6b6b6b" fill-opacity="1"><g transform="translate(68.220104, 47.552779)"><g><path d="M 2.796875 0.140625 C 2.441406 0.140625 2.109375 0.0664062 1.796875 -0.078125 C 1.492188 -0.234375 1.25 -0.453125 1.0625 -0.734375 C 0.882812 -1.015625 0.796875 -1.359375 0.796875 -1.765625 C 0.796875 -2.066406 0.863281 -2.335938 1 -2.578125 C 1.132812 -2.828125 1.378906 -3.039062 1.734375 -3.21875 C 2.085938 -3.394531 2.597656 -3.519531 3.265625 -3.59375 C 3.566406 -3.625 3.851562 -3.660156 4.125 -3.703125 C 4.394531 -3.753906 4.613281 -3.828125 4.78125 -3.921875 C 4.945312 -4.015625 5.03125 -4.144531 5.03125 -4.3125 L 5.03125 -4.703125 C 5.03125 -5.203125 4.859375 -5.601562 4.515625 -5.90625 C 4.179688 -6.21875 3.734375 -6.375 3.171875 -6.375 C 2.710938 -6.375 2.3125 -6.269531 1.96875 -6.0625 C 1.625 -5.863281 1.382812 -5.582031 1.25 -5.21875 L 0.984375 -5.3125 C 1.140625 -5.726562 1.414062 -6.050781 1.8125 -6.28125 C 2.207031 -6.519531 2.660156 -6.640625 3.171875 -6.640625 C 3.835938 -6.640625 4.359375 -6.453125 4.734375 -6.078125 C 5.109375 -5.710938 5.296875 -5.253906 5.296875 -4.703125 L 5.296875 0 L 5.03125 0 L 5.03125 -1.328125 L 5 -1.328125 C 4.789062 -0.890625 4.492188 -0.535156 4.109375 -0.265625 C 3.722656 0.00390625 3.285156 0.140625 2.796875 0.140625 Z M 2.796875 -0.140625 C 3.210938 -0.140625 3.585938 -0.25 3.921875 -0.46875 C 4.265625 -0.695312 4.535156 -1.007812 4.734375 -1.40625 C 4.929688 -1.800781 5.03125 -2.265625 5.03125 -2.796875 L 5.03125 -3.78125 C 4.863281 -3.664062 4.640625 -3.570312 4.359375 -3.5 C 4.078125 -3.4375 3.75 -3.382812 3.375 -3.34375 C 2.789062 -3.269531 2.328125 -3.164062 1.984375 -3.03125 C 1.648438 -2.894531 1.414062 -2.71875 1.28125 -2.5 C 1.144531 -2.289062 1.078125 -2.046875 1.078125 -1.765625 C 1.078125 -1.273438 1.238281 -0.878906 1.5625 -0.578125 C 1.894531 -0.285156 2.304688 -0.140625 2.796875 -0.140625 Z M 2.796875 -0.140625 "/></g></g></g><g fill="#6b6b6b" fill-opacity="1"><g transform="translate(74.714351, 47.552779)"><g><path d="M 3.40625 -6.546875 L 3.40625 -6.265625 L 2 -6.265625 L 2 0 L 1.71875 0 L 1.71875 -6.265625 L 0.8125 -6.265625 L 0.8125 -6.546875 L 1.71875 -6.546875 L 1.71875 -7.5 C 1.71875 -7.957031 1.863281 -8.320312 2.15625 -8.59375 C 2.457031 -8.863281 2.8125 -9 3.21875 -9 C 3.320312 -9 3.414062 -8.988281 3.5 -8.96875 C 3.582031 -8.957031 3.660156 -8.9375 3.734375 -8.90625 L 3.65625 -8.65625 C 3.582031 -8.675781 3.507812 -8.691406 3.4375 -8.703125 C 3.375 -8.722656 3.300781 -8.734375 3.21875 -8.734375 C 2.894531 -8.734375 2.609375 -8.625 2.359375 -8.40625 C 2.117188 -8.1875 2 -7.882812 2 -7.5 L 2 -6.546875 Z M 3.40625 -6.546875 "/></g></g></g><g fill="#6b6b6b" fill-opacity="1"><g transform="translate(78.685897, 47.552779)"><g><path d="M 3.203125 -6.546875 L 3.203125 -6.265625 L 1.84375 -6.265625 L 1.84375 -1.375 C 1.84375 -1 1.960938 -0.703125 2.203125 -0.484375 C 2.453125 -0.265625 2.738281 -0.15625 3.0625 -0.15625 C 3.207031 -0.15625 3.359375 -0.179688 3.515625 -0.234375 L 3.59375 0.015625 C 3.507812 0.046875 3.425781 0.0703125 3.34375 0.09375 C 3.257812 0.113281 3.164062 0.125 3.0625 0.125 C 2.664062 0.125 2.316406 -0.0078125 2.015625 -0.28125 C 1.710938 -0.550781 1.5625 -0.914062 1.5625 -1.375 L 1.5625 -6.265625 L 0.609375 -6.265625 L 0.609375 -6.546875 L 1.5625 -6.546875 L 1.5625 -8.109375 L 1.84375 -8.109375 L 1.84375 -6.546875 Z M 3.203125 -6.546875 "/></g></g></g><g fill="#6b6b6b" fill-opacity="1"><g transform="translate(82.865485, 47.552779)"><g/></g></g><g fill="#6b6b6b" fill-opacity="1"><g transform="translate(86.240451, 47.552779)"><g/></g></g><g fill="#6b6b6b" fill-opacity="1"><g transform="translate(89.615485, 47.552779)"><g><path d="M 1.359375 0 L 1.359375 -8.734375 L 1.640625 -8.734375 L 1.640625 -4.5 L 7.1875 -4.5 L 7.1875 -8.734375 L 7.46875 -8.734375 L 7.46875 0 L 7.1875 0 L 7.1875 -4.234375 L 1.640625 -4.234375 L 1.640625 0 Z M 1.359375 0 "/></g></g></g><g fill="#6b6b6b" fill-opacity="1"><g transform="translate(98.444933, 47.552779)"><g><path d="M 2.796875 0.140625 C 2.441406 0.140625 2.109375 0.0664062 1.796875 -0.078125 C 1.492188 -0.234375 1.25 -0.453125 1.0625 -0.734375 C 0.882812 -1.015625 0.796875 -1.359375 0.796875 -1.765625 C 0.796875 -2.066406 0.863281 -2.335938 1 -2.578125 C 1.132812 -2.828125 1.378906 -3.039062 1.734375 -3.21875 C 2.085938 -3.394531 2.597656 -3.519531 3.265625 -3.59375 C 3.566406 -3.625 3.851562 -3.660156 4.125 -3.703125 C 4.394531 -3.753906 4.613281 -3.828125 4.78125 -3.921875 C 4.945312 -4.015625 5.03125 -4.144531 5.03125 -4.3125 L 5.03125 -4.703125 C 5.03125 -5.203125 4.859375 -5.601562 4.515625 -5.90625 C 4.179688 -6.21875 3.734375 -6.375 3.171875 -6.375 C 2.710938 -6.375 2.3125 -6.269531 1.96875 -6.0625 C 1.625 -5.863281 1.382812 -5.582031 1.25 -5.21875 L 0.984375 -5.3125 C 1.140625 -5.726562 1.414062 -6.050781 1.8125 -6.28125 C 2.207031 -6.519531 2.660156 -6.640625 3.171875 -6.640625 C 3.835938 -6.640625 4.359375 -6.453125 4.734375 -6.078125 C 5.109375 -5.710938 5.296875 -5.253906 5.296875 -4.703125 L 5.296875 0 L 5.03125 0 L 5.03125 -1.328125 L 5 -1.328125 C 4.789062 -0.890625 4.492188 -0.535156 4.109375 -0.265625 C 3.722656 0.00390625 3.285156 0.140625 2.796875 0.140625 Z M 2.796875 -0.140625 C 3.210938 -0.140625 3.585938 -0.25 3.921875 -0.46875 C 4.265625 -0.695312 4.535156 -1.007812 4.734375 -1.40625 C 4.929688 -1.800781 5.03125 -2.265625 5.03125 -2.796875 L 5.03125 -3.78125 C 4.863281 -3.664062 4.640625 -3.570312 4.359375 -3.5 C 4.078125 -3.4375 3.75 -3.382812 3.375 -3.34375 C 2.789062 -3.269531 2.328125 -3.164062 1.984375 -3.03125 C 1.648438 -2.894531 1.414062 -2.71875 1.28125 -2.5 C 1.144531 -2.289062 1.078125 -2.046875 1.078125 -1.765625 C 1.078125 -1.273438 1.238281 -0.878906 1.5625 -0.578125 C 1.894531 -0.285156 2.304688 -0.140625 2.796875 -0.140625 Z M 2.796875 -0.140625 "/></g></g></g><g fill="#6b6b6b" fill-opacity="1"><g transform="translate(104.93918, 47.552779)"><g><path d="M 1.15625 0 L 1.15625 -6.546875 L 1.4375 -6.546875 L 1.4375 -5.5 L 1.46875 -5.5 C 1.625 -5.84375 1.875 -6.113281 2.21875 -6.3125 C 2.570312 -6.519531 2.972656 -6.625 3.421875 -6.625 C 3.566406 -6.625 3.703125 -6.613281 3.828125 -6.59375 C 3.953125 -6.570312 4.066406 -6.546875 4.171875 -6.515625 L 4.078125 -6.25 C 3.890625 -6.320312 3.671875 -6.359375 3.421875 -6.359375 C 3.035156 -6.359375 2.691406 -6.273438 2.390625 -6.109375 C 2.097656 -5.941406 1.863281 -5.707031 1.6875 -5.40625 C 1.519531 -5.113281 1.4375 -4.773438 1.4375 -4.390625 L 1.4375 0 Z M 1.15625 0 "/></g></g></g><g fill="#6b6b6b" fill-opacity="1"><g transform="translate(109.285726, 47.552779)"><g><path d="M 1.15625 0 L 1.15625 -6.546875 L 1.4375 -6.546875 L 1.4375 -5.578125 L 1.46875 -5.578125 C 1.582031 -5.890625 1.789062 -6.140625 2.09375 -6.328125 C 2.40625 -6.523438 2.78125 -6.625 3.21875 -6.625 C 3.71875 -6.625 4.113281 -6.5 4.40625 -6.25 C 4.695312 -6.007812 4.898438 -5.6875 5.015625 -5.28125 L 5.046875 -5.28125 C 5.148438 -5.6875 5.367188 -6.007812 5.703125 -6.25 C 6.035156 -6.5 6.445312 -6.625 6.9375 -6.625 C 7.59375 -6.625 8.078125 -6.414062 8.390625 -6 C 8.703125 -5.582031 8.859375 -5.046875 8.859375 -4.390625 L 8.859375 0 L 8.59375 0 L 8.59375 -4.390625 C 8.59375 -4.972656 8.460938 -5.445312 8.203125 -5.8125 C 7.941406 -6.175781 7.519531 -6.359375 6.9375 -6.359375 C 6.351562 -6.359375 5.90625 -6.171875 5.59375 -5.796875 C 5.289062 -5.429688 5.140625 -4.960938 5.140625 -4.390625 L 5.140625 0 L 4.875 0 L 4.875 -4.390625 C 4.875 -4.972656 4.742188 -5.445312 4.484375 -5.8125 C 4.222656 -6.175781 3.800781 -6.359375 3.21875 -6.359375 C 2.644531 -6.359375 2.203125 -6.171875 1.890625 -5.796875 C 1.585938 -5.429688 1.4375 -4.960938 1.4375 -4.390625 L 1.4375 0 Z M 1.15625 0 "/></g></g></g><g fill="#6b6b6b" fill-opacity="1"><g transform="translate(119.308336, 47.552779)"><g><path d="M 3.484375 0.140625 C 2.960938 0.140625 2.5 -0.00390625 2.09375 -0.296875 C 1.6875 -0.597656 1.363281 -1.003906 1.125 -1.515625 C 0.882812 -2.035156 0.765625 -2.613281 0.765625 -3.25 C 0.765625 -3.894531 0.882812 -4.472656 1.125 -4.984375 C 1.363281 -5.492188 1.6875 -5.894531 2.09375 -6.1875 C 2.5 -6.488281 2.960938 -6.640625 3.484375 -6.640625 C 3.992188 -6.640625 4.453125 -6.488281 4.859375 -6.1875 C 5.265625 -5.894531 5.585938 -5.492188 5.828125 -4.984375 C 6.066406 -4.472656 6.1875 -3.894531 6.1875 -3.25 C 6.1875 -2.613281 6.066406 -2.035156 5.828125 -1.515625 C 5.585938 -1.003906 5.265625 -0.597656 4.859375 -0.296875 C 4.453125 -0.00390625 3.992188 0.140625 3.484375 0.140625 Z M 3.484375 -0.140625 C 3.941406 -0.140625 4.351562 -0.273438 4.71875 -0.546875 C 5.09375 -0.816406 5.382812 -1.1875 5.59375 -1.65625 C 5.8125 -2.132812 5.921875 -2.664062 5.921875 -3.25 C 5.921875 -3.84375 5.8125 -4.375 5.59375 -4.84375 C 5.375 -5.3125 5.082031 -5.679688 4.71875 -5.953125 C 4.351562 -6.234375 3.941406 -6.375 3.484375 -6.375 C 3.015625 -6.375 2.597656 -6.234375 2.234375 -5.953125 C 1.867188 -5.679688 1.578125 -5.3125 1.359375 -4.84375 C 1.148438 -4.375 1.046875 -3.84375 1.046875 -3.25 C 1.046875 -2.664062 1.148438 -2.132812 1.359375 -1.65625 C 1.566406 -1.1875 1.851562 -0.816406 2.21875 -0.546875 C 2.59375 -0.273438 3.015625 -0.140625 3.484375 -0.140625 Z M 3.484375 -0.140625 "/></g></g></g><g fill="#6b6b6b" fill-opacity="1"><g transform="translate(126.262807, 47.552779)"><g><path d="M 1.4375 -4.390625 L 1.4375 0 L 1.15625 0 L 1.15625 -6.546875 L 1.4375 -6.546875 L 1.4375 -5.5 L 1.46875 -5.5 C 1.625 -5.84375 1.875 -6.113281 2.21875 -6.3125 C 2.570312 -6.519531 2.972656 -6.625 3.421875 -6.625 C 3.859375 -6.625 4.242188 -6.53125 4.578125 -6.34375 C 4.921875 -6.15625 5.1875 -5.890625 5.375 -5.546875 C 5.5625 -5.210938 5.65625 -4.828125 5.65625 -4.390625 L 5.65625 0 L 5.390625 0 L 5.390625 -4.390625 C 5.390625 -4.972656 5.207031 -5.445312 4.84375 -5.8125 C 4.476562 -6.175781 4.003906 -6.359375 3.421875 -6.359375 C 3.035156 -6.359375 2.691406 -6.273438 2.390625 -6.109375 C 2.097656 -5.941406 1.863281 -5.707031 1.6875 -5.40625 C 1.519531 -5.113281 1.4375 -4.773438 1.4375 -4.390625 Z M 1.4375 -4.390625 "/></g></g></g><g fill="#6b6b6b" fill-opacity="1"><g transform="translate(132.842278, 47.552779)"><g><path d="M 1.421875 2.59375 C 1.191406 2.59375 0.945312 2.535156 0.6875 2.421875 L 0.78125 2.1875 C 1.632812 2.550781 2.242188 2.222656 2.609375 1.203125 L 3 0.125 L 0.609375 -6.546875 L 0.90625 -6.546875 L 3.125 -0.34375 L 3.15625 -0.34375 L 5.375 -6.546875 L 5.65625 -6.546875 L 2.859375 1.3125 C 2.546875 2.164062 2.066406 2.59375 1.421875 2.59375 Z M 1.421875 2.59375 "/></g></g></g></svg>