<svg xmlns="http://www.w3.org/2000/svg" xmlns:xlink="http://www.w3.org/1999/xlink" width="200" zoomAndPan="magnify" viewBox="0 0 150 67.92" height="80" preserveAspectRatio="xMidYMid meet" version="1.0"><defs><g/></defs><g fill="#1b1b1b" fill-opacity="1"><g transform="translate(4.208382, 31.37131)"><g><path d="M 17.265625 -21.859375 C 17.179688 -21.015625 17.125 -20.195312 17.09375 -19.40625 C 17.0625 -18.613281 17.046875 -18.007812 17.046875 -17.59375 C 17.046875 -17.207031 17.054688 -16.832031 17.078125 -16.46875 C 17.097656 -16.113281 17.117188 -15.8125 17.140625 -15.5625 L 16.421875 -15.5625 C 16.253906 -16.976562 15.984375 -18.09375 15.609375 -18.90625 C 15.242188 -19.71875 14.75 -20.296875 14.125 -20.640625 C 13.5 -20.984375 12.679688 -21.15625 11.671875 -21.15625 L 9.96875 -21.15625 C 9.351562 -21.15625 8.878906 -21.101562 8.546875 -21 C 8.222656 -20.894531 8.003906 -20.675781 7.890625 -20.34375 C 7.773438 -20.019531 7.71875 -19.515625 7.71875 -18.828125 L 7.71875 -3.03125 C 7.71875 -2.363281 7.773438 -1.859375 7.890625 -1.515625 C 8.003906 -1.179688 8.222656 -0.960938 8.546875 -0.859375 C 8.878906 -0.753906 9.351562 -0.703125 9.96875 -0.703125 L 11.734375 -0.703125 C 12.785156 -0.703125 13.664062 -0.898438 14.375 -1.296875 C 15.082031 -1.691406 15.648438 -2.332031 16.078125 -3.21875 C 16.515625 -4.113281 16.835938 -5.347656 17.046875 -6.921875 L 17.75 -6.921875 C 17.6875 -6.273438 17.65625 -5.453125 17.65625 -4.453125 C 17.65625 -4.015625 17.671875 -3.382812 17.703125 -2.5625 C 17.734375 -1.738281 17.789062 -0.882812 17.875 0 C 16.820312 -0.0390625 15.632812 -0.0664062 14.3125 -0.078125 C 13 -0.0859375 11.832031 -0.09375 10.8125 -0.09375 C 10.332031 -0.09375 9.707031 -0.09375 8.9375 -0.09375 C 8.164062 -0.09375 7.332031 -0.0859375 6.4375 -0.078125 C 5.539062 -0.0664062 4.632812 -0.0546875 3.71875 -0.046875 C 2.800781 -0.0351562 1.929688 -0.0195312 1.109375 0 L 1.109375 -0.625 C 1.785156 -0.65625 2.296875 -0.734375 2.640625 -0.859375 C 2.984375 -0.984375 3.207031 -1.226562 3.3125 -1.59375 C 3.425781 -1.96875 3.484375 -2.523438 3.484375 -3.265625 L 3.484375 -18.59375 C 3.484375 -19.351562 3.425781 -19.910156 3.3125 -20.265625 C 3.207031 -20.628906 2.984375 -20.878906 2.640625 -21.015625 C 2.296875 -21.148438 1.785156 -21.222656 1.109375 -21.234375 L 1.109375 -21.859375 C 1.929688 -21.835938 2.800781 -21.820312 3.71875 -21.8125 C 4.632812 -21.800781 5.539062 -21.789062 6.4375 -21.78125 C 7.332031 -21.769531 8.164062 -21.765625 8.9375 -21.765625 C 9.707031 -21.765625 10.332031 -21.765625 10.8125 -21.765625 C 11.75 -21.765625 12.820312 -21.769531 14.03125 -21.78125 C 15.238281 -21.789062 16.316406 -21.816406 17.265625 -21.859375 Z M 12.28125 -11.296875 C 12.28125 -11.296875 12.28125 -11.191406 12.28125 -10.984375 C 12.28125 -10.785156 12.28125 -10.6875 12.28125 -10.6875 L 6.796875 -10.6875 C 6.796875 -10.6875 6.796875 -10.785156 6.796875 -10.984375 C 6.796875 -11.191406 6.796875 -11.296875 6.796875 -11.296875 Z M 13.1875 -15.375 C 13.101562 -14.195312 13.066406 -13.300781 13.078125 -12.6875 C 13.085938 -12.070312 13.09375 -11.503906 13.09375 -10.984375 C 13.09375 -10.472656 13.101562 -9.90625 13.125 -9.28125 C 13.144531 -8.664062 13.195312 -7.773438 13.28125 -6.609375 L 12.5625 -6.609375 C 12.457031 -7.304688 12.296875 -7.96875 12.078125 -8.59375 C 11.867188 -9.226562 11.53125 -9.734375 11.0625 -10.109375 C 10.601562 -10.492188 9.941406 -10.6875 9.078125 -10.6875 L 9.078125 -11.296875 C 9.710938 -11.296875 10.226562 -11.429688 10.625 -11.703125 C 11.03125 -11.972656 11.359375 -12.316406 11.609375 -12.734375 C 11.859375 -13.160156 12.046875 -13.601562 12.171875 -14.0625 C 12.304688 -14.53125 12.40625 -14.96875 12.46875 -15.375 Z M 13.1875 -15.375 "/></g></g></g><g fill="#1b1b1b" fill-opacity="1"><g transform="translate(23.38342, 31.37131)"><g><path d="M 15.4375 -15.96875 L 15.4375 -15.3125 C 15.039062 -15.226562 14.671875 -15.007812 14.328125 -14.65625 C 13.992188 -14.3125 13.675781 -13.695312 13.375 -12.8125 L 8.640625 0.09375 C 8.398438 0.0703125 8.15625 0.0625 7.90625 0.0625 C 7.65625 0.0625 7.394531 0.0703125 7.125 0.09375 L 1.578125 -13.578125 C 1.265625 -14.367188 0.941406 -14.851562 0.609375 -15.03125 C 0.285156 -15.21875 0.0078125 -15.3125 -0.21875 -15.3125 L -0.21875 -15.96875 C 0.351562 -15.925781 0.945312 -15.890625 1.5625 -15.859375 C 2.1875 -15.828125 2.867188 -15.8125 3.609375 -15.8125 C 4.242188 -15.8125 4.914062 -15.828125 5.625 -15.859375 C 6.34375 -15.890625 7.007812 -15.925781 7.625 -15.96875 L 7.625 -15.3125 C 7.175781 -15.3125 6.769531 -15.28125 6.40625 -15.21875 C 6.039062 -15.15625 5.796875 -14.992188 5.671875 -14.734375 C 5.554688 -14.484375 5.609375 -14.039062 5.828125 -13.40625 L 9.546875 -3.796875 L 9.265625 -3.453125 L 12.078125 -11.078125 C 12.421875 -12.046875 12.5625 -12.828125 12.5 -13.421875 C 12.4375 -14.023438 12.210938 -14.476562 11.828125 -14.78125 C 11.453125 -15.09375 10.914062 -15.269531 10.21875 -15.3125 L 10.21875 -15.96875 C 10.570312 -15.945312 10.90625 -15.925781 11.21875 -15.90625 C 11.539062 -15.882812 11.859375 -15.867188 12.171875 -15.859375 C 12.492188 -15.847656 12.800781 -15.84375 13.09375 -15.84375 C 13.519531 -15.84375 13.941406 -15.851562 14.359375 -15.875 C 14.785156 -15.894531 15.144531 -15.925781 15.4375 -15.96875 Z M 15.4375 -15.96875 "/></g></g></g><g fill="#1b1b1b" fill-opacity="1"><g transform="translate(38.544364, 31.37131)"><g><path d="M 5.09375 0.21875 C 4.207031 0.21875 3.457031 0.0507812 2.84375 -0.28125 C 2.226562 -0.625 1.765625 -1.085938 1.453125 -1.671875 C 1.140625 -2.265625 0.984375 -2.921875 0.984375 -3.640625 C 0.984375 -4.523438 1.1875 -5.25 1.59375 -5.8125 C 2.007812 -6.382812 2.539062 -6.835938 3.1875 -7.171875 C 3.84375 -7.515625 4.53125 -7.800781 5.25 -8.03125 C 5.96875 -8.269531 6.644531 -8.5 7.28125 -8.71875 C 7.925781 -8.9375 8.453125 -9.1875 8.859375 -9.46875 C 9.273438 -9.757812 9.484375 -10.144531 9.484375 -10.625 L 9.484375 -12.875 C 9.484375 -13.53125 9.382812 -14.066406 9.1875 -14.484375 C 8.988281 -14.910156 8.695312 -15.234375 8.3125 -15.453125 C 7.9375 -15.671875 7.460938 -15.78125 6.890625 -15.78125 C 6.453125 -15.78125 5.992188 -15.71875 5.515625 -15.59375 C 5.046875 -15.46875 4.660156 -15.226562 4.359375 -14.875 C 4.890625 -14.738281 5.300781 -14.472656 5.59375 -14.078125 C 5.894531 -13.691406 6.046875 -13.21875 6.046875 -12.65625 C 6.046875 -12.019531 5.832031 -11.519531 5.40625 -11.15625 C 4.988281 -10.800781 4.460938 -10.625 3.828125 -10.625 C 3.148438 -10.625 2.632812 -10.835938 2.28125 -11.265625 C 1.9375 -11.703125 1.765625 -12.207031 1.765625 -12.78125 C 1.765625 -13.351562 1.90625 -13.832031 2.1875 -14.21875 C 2.476562 -14.601562 2.878906 -14.945312 3.390625 -15.25 C 3.910156 -15.601562 4.570312 -15.878906 5.375 -16.078125 C 6.175781 -16.285156 7.050781 -16.390625 8 -16.390625 C 8.90625 -16.390625 9.707031 -16.289062 10.40625 -16.09375 C 11.101562 -15.90625 11.703125 -15.5625 12.203125 -15.0625 C 12.691406 -14.59375 13.007812 -14.003906 13.15625 -13.296875 C 13.300781 -12.597656 13.375 -11.75 13.375 -10.75 L 13.375 -2.28125 C 13.375 -1.769531 13.429688 -1.40625 13.546875 -1.1875 C 13.671875 -0.96875 13.867188 -0.859375 14.140625 -0.859375 C 14.347656 -0.859375 14.539062 -0.910156 14.71875 -1.015625 C 14.90625 -1.117188 15.113281 -1.265625 15.34375 -1.453125 L 15.6875 -0.921875 C 15.226562 -0.578125 14.75 -0.300781 14.25 -0.09375 C 13.757812 0.113281 13.164062 0.21875 12.46875 0.21875 C 11.75 0.21875 11.175781 0.113281 10.75 -0.09375 C 10.332031 -0.300781 10.023438 -0.597656 9.828125 -0.984375 C 9.640625 -1.378906 9.535156 -1.84375 9.515625 -2.375 C 9.015625 -1.550781 8.40625 -0.910156 7.6875 -0.453125 C 6.96875 -0.00390625 6.101562 0.21875 5.09375 0.21875 Z M 6.953125 -1.515625 C 7.441406 -1.515625 7.894531 -1.644531 8.3125 -1.90625 C 8.738281 -2.175781 9.128906 -2.582031 9.484375 -3.125 L 9.484375 -9.359375 C 9.273438 -9.046875 8.976562 -8.765625 8.59375 -8.515625 C 8.21875 -8.273438 7.8125 -8.03125 7.375 -7.78125 C 6.945312 -7.53125 6.539062 -7.242188 6.15625 -6.921875 C 5.78125 -6.609375 5.460938 -6.21875 5.203125 -5.75 C 4.941406 -5.289062 4.8125 -4.703125 4.8125 -3.984375 C 4.8125 -3.179688 5.003906 -2.566406 5.390625 -2.140625 C 5.785156 -1.722656 6.304688 -1.515625 6.953125 -1.515625 Z M 6.953125 -1.515625 "/></g></g></g><g fill="#1b1b1b" fill-opacity="1"><g transform="translate(54.106718, 31.37131)"><g/></g></g><g fill="#1b1b1b" fill-opacity="1"><g transform="translate(61.486491, 31.37131)"><g><path d="M 14.140625 0 L 14.140625 -0.625 C 14.816406 -0.65625 15.320312 -0.734375 15.65625 -0.859375 C 16 -0.984375 16.226562 -1.226562 16.34375 -1.59375 C 16.457031 -1.96875 16.515625 -2.523438 16.515625 -3.265625 L 16.515625 -18.59375 C 16.515625 -19.351562 16.457031 -19.910156 16.34375 -20.265625 C 16.226562 -20.628906 16 -20.878906 15.65625 -21.015625 C 15.320312 -21.148438 14.816406 -21.222656 14.140625 -21.234375 L 14.140625 -21.859375 C 14.691406 -21.835938 15.378906 -21.816406 16.203125 -21.796875 C 17.023438 -21.773438 17.847656 -21.765625 18.671875 -21.765625 C 19.578125 -21.765625 20.425781 -21.773438 21.21875 -21.796875 C 22.019531 -21.816406 22.65625 -21.835938 23.125 -21.859375 L 23.125 -21.234375 C 22.46875 -21.222656 21.96875 -21.148438 21.625 -21.015625 C 21.289062 -20.878906 21.0625 -20.628906 20.9375 -20.265625 C 20.8125 -19.910156 20.75 -19.351562 20.75 -18.59375 L 20.75 -3.265625 C 20.75 -2.523438 20.8125 -1.96875 20.9375 -1.59375 C 21.0625 -1.226562 21.289062 -0.984375 21.625 -0.859375 C 21.96875 -0.734375 22.46875 -0.65625 23.125 -0.625 L 23.125 0 C 22.65625 -0.0390625 22.019531 -0.0664062 21.21875 -0.078125 C 20.425781 -0.0859375 19.578125 -0.09375 18.671875 -0.09375 C 17.847656 -0.09375 17.023438 -0.0859375 16.203125 -0.078125 C 15.378906 -0.0664062 14.691406 -0.0390625 14.140625 0 Z M 1.109375 0 L 1.109375 -0.625 C 1.785156 -0.65625 2.296875 -0.734375 2.640625 -0.859375 C 2.984375 -0.984375 3.207031 -1.226562 3.3125 -1.59375 C 3.425781 -1.96875 3.484375 -2.523438 3.484375 -3.265625 L 3.484375 -18.59375 C 3.484375 -19.351562 3.425781 -19.910156 3.3125 -20.265625 C 3.207031 -20.628906 2.984375 -20.878906 2.640625 -21.015625 C 2.296875 -21.148438 1.785156 -21.222656 1.109375 -21.234375 L 1.109375 -21.859375 C 1.628906 -21.835938 2.289062 -21.816406 3.09375 -21.796875 C 3.894531 -21.773438 4.757812 -21.765625 5.6875 -21.765625 C 6.507812 -21.765625 7.320312 -21.773438 8.125 -21.796875 C 8.925781 -21.816406 9.582031 -21.835938 10.09375 -21.859375 L 10.09375 -21.234375 C 9.4375 -21.222656 8.9375 -21.148438 8.59375 -21.015625 C 8.257812 -20.878906 8.03125 -20.628906 7.90625 -20.265625 C 7.78125 -19.910156 7.71875 -19.351562 7.71875 -18.59375 L 7.71875 -3.265625 C 7.71875 -2.523438 7.78125 -1.96875 7.90625 -1.59375 C 8.03125 -1.226562 8.257812 -0.984375 8.59375 -0.859375 C 8.9375 -0.734375 9.4375 -0.65625 10.09375 -0.625 L 10.09375 0 C 9.582031 -0.0390625 8.925781 -0.0664062 8.125 -0.078125 C 7.320312 -0.0859375 6.507812 -0.09375 5.6875 -0.09375 C 4.757812 -0.09375 3.894531 -0.0859375 3.09375 -0.078125 C 2.289062 -0.0664062 1.628906 -0.0390625 1.109375 0 Z M 6.015625 -10.6875 L 6.015625 -11.296875 L 18.21875 -11.296875 L 18.21875 -10.6875 Z M 6.015625 -10.6875 "/></g></g></g><g fill="#1b1b1b" fill-opacity="1"><g transform="translate(85.169677, 31.37131)"><g><path d="M 8.640625 -16.390625 C 10.066406 -16.390625 11.328125 -16.109375 12.421875 -15.546875 C 13.523438 -14.984375 14.398438 -14.082031 15.046875 -12.84375 C 15.703125 -11.601562 16.03125 -9.976562 16.03125 -7.96875 C 16.03125 -5.945312 15.703125 -4.316406 15.046875 -3.078125 C 14.398438 -1.847656 13.523438 -0.953125 12.421875 -0.390625 C 11.328125 0.160156 10.066406 0.4375 8.640625 0.4375 C 7.222656 0.4375 5.957031 0.160156 4.84375 -0.390625 C 3.738281 -0.953125 2.863281 -1.847656 2.21875 -3.078125 C 1.582031 -4.316406 1.265625 -5.945312 1.265625 -7.96875 C 1.265625 -9.976562 1.582031 -11.601562 2.21875 -12.84375 C 2.863281 -14.082031 3.738281 -14.984375 4.84375 -15.546875 C 5.957031 -16.109375 7.222656 -16.390625 8.640625 -16.390625 Z M 8.640625 -15.78125 C 7.671875 -15.78125 6.882812 -15.164062 6.28125 -13.9375 C 5.675781 -12.71875 5.375 -10.726562 5.375 -7.96875 C 5.375 -5.207031 5.675781 -3.21875 6.28125 -2 C 6.882812 -0.789062 7.671875 -0.1875 8.640625 -0.1875 C 9.585938 -0.1875 10.367188 -0.789062 10.984375 -2 C 11.609375 -3.21875 11.921875 -5.207031 11.921875 -7.96875 C 11.921875 -10.726562 11.609375 -12.71875 10.984375 -13.9375 C 10.367188 -15.164062 9.585938 -15.78125 8.640625 -15.78125 Z M 8.640625 -15.78125 "/></g></g></g><g fill="#1b1b1b" fill-opacity="1"><g transform="translate(102.430314, 31.37131)"><g><path d="M 11.671875 -16.390625 C 12.472656 -16.390625 13.144531 -16.273438 13.6875 -16.046875 C 14.238281 -15.828125 14.664062 -15.539062 14.96875 -15.1875 C 15.34375 -14.800781 15.601562 -14.28125 15.75 -13.625 C 15.894531 -12.976562 15.96875 -12.160156 15.96875 -11.171875 L 15.96875 -2.875 C 15.96875 -2.007812 16.113281 -1.421875 16.40625 -1.109375 C 16.707031 -0.796875 17.21875 -0.640625 17.9375 -0.640625 L 17.9375 0 C 17.5625 -0.0195312 17.003906 -0.046875 16.265625 -0.078125 C 15.523438 -0.109375 14.804688 -0.125 14.109375 -0.125 C 13.367188 -0.125 12.65625 -0.109375 11.96875 -0.078125 C 11.28125 -0.046875 10.757812 -0.0195312 10.40625 0 L 10.40625 -0.640625 C 11 -0.640625 11.425781 -0.796875 11.6875 -1.109375 C 11.945312 -1.421875 12.078125 -2.007812 12.078125 -2.875 L 12.078125 -12.21875 C 12.078125 -12.78125 12.035156 -13.28125 11.953125 -13.71875 C 11.867188 -14.164062 11.691406 -14.515625 11.421875 -14.765625 C 11.148438 -15.023438 10.738281 -15.15625 10.1875 -15.15625 C 9.550781 -15.15625 8.972656 -14.96875 8.453125 -14.59375 C 7.941406 -14.226562 7.535156 -13.722656 7.234375 -13.078125 C 6.941406 -12.429688 6.796875 -11.707031 6.796875 -10.90625 L 6.796875 -2.875 C 6.796875 -2.007812 6.914062 -1.421875 7.15625 -1.109375 C 7.40625 -0.796875 7.835938 -0.640625 8.453125 -0.640625 L 8.453125 0 C 8.109375 -0.0195312 7.597656 -0.046875 6.921875 -0.078125 C 6.253906 -0.109375 5.570312 -0.125 4.875 -0.125 C 4.113281 -0.125 3.34375 -0.109375 2.5625 -0.078125 C 1.78125 -0.046875 1.191406 -0.0195312 0.796875 0 L 0.796875 -0.640625 C 1.554688 -0.640625 2.097656 -0.796875 2.421875 -1.109375 C 2.742188 -1.421875 2.90625 -2.007812 2.90625 -2.875 L 2.90625 -12.59375 C 2.90625 -13.519531 2.753906 -14.203125 2.453125 -14.640625 C 2.148438 -15.085938 1.597656 -15.3125 0.796875 -15.3125 L 0.796875 -15.96875 C 1.460938 -15.90625 2.101562 -15.875 2.71875 -15.875 C 3.476562 -15.875 4.203125 -15.90625 4.890625 -15.96875 C 5.578125 -16.039062 6.210938 -16.148438 6.796875 -16.296875 L 6.796875 -13.21875 C 7.304688 -14.34375 7.992188 -15.148438 8.859375 -15.640625 C 9.722656 -16.140625 10.660156 -16.390625 11.671875 -16.390625 Z M 20.96875 -16.390625 C 21.769531 -16.390625 22.441406 -16.273438 22.984375 -16.046875 C 23.523438 -15.828125 23.953125 -15.539062 24.265625 -15.1875 C 24.640625 -14.800781 24.894531 -14.28125 25.03125 -13.625 C 25.175781 -12.976562 25.25 -12.160156 25.25 -11.171875 L 25.25 -2.875 C 25.25 -2.007812 25.410156 -1.421875 25.734375 -1.109375 C 26.054688 -0.796875 26.597656 -0.640625 27.359375 -0.640625 L 27.359375 0 C 26.984375 -0.0195312 26.410156 -0.046875 25.640625 -0.078125 C 24.867188 -0.109375 24.125 -0.125 23.40625 -0.125 C 22.664062 -0.125 21.945312 -0.109375 21.25 -0.078125 C 20.5625 -0.046875 20.046875 -0.0195312 19.703125 0 L 19.703125 -0.640625 C 20.296875 -0.640625 20.71875 -0.796875 20.96875 -1.109375 C 21.226562 -1.421875 21.359375 -2.007812 21.359375 -2.875 L 21.359375 -12.21875 C 21.359375 -12.78125 21.3125 -13.28125 21.21875 -13.71875 C 21.132812 -14.164062 20.945312 -14.515625 20.65625 -14.765625 C 20.363281 -15.023438 19.929688 -15.15625 19.359375 -15.15625 C 18.722656 -15.15625 18.144531 -14.957031 17.625 -14.5625 C 17.113281 -14.175781 16.707031 -13.660156 16.40625 -13.015625 C 16.113281 -12.367188 15.957031 -11.644531 15.9375 -10.84375 L 15.78125 -13.0625 C 16.332031 -14.332031 17.070312 -15.203125 18 -15.671875 C 18.925781 -16.148438 19.914062 -16.390625 20.96875 -16.390625 Z M 20.96875 -16.390625 "/></g></g></g><g fill="#1b1b1b" fill-opacity="1"><g transform="translate(130.189364, 31.37131)"><g><path d="M 8.578125 -16.390625 C 10.390625 -16.390625 11.8125 -15.84375 12.84375 -14.75 C 13.875 -13.664062 14.390625 -11.929688 14.390625 -9.546875 L 3.984375 -9.546875 L 3.953125 -10.125 L 10.8125 -10.125 C 10.851562 -11.132812 10.789062 -12.066406 10.625 -12.921875 C 10.457031 -13.773438 10.191406 -14.457031 9.828125 -14.96875 C 9.472656 -15.488281 9.003906 -15.75 8.421875 -15.75 C 7.640625 -15.75 6.960938 -15.289062 6.390625 -14.375 C 5.816406 -13.457031 5.457031 -11.957031 5.3125 -9.875 L 5.4375 -9.6875 C 5.394531 -9.425781 5.367188 -9.140625 5.359375 -8.828125 C 5.347656 -8.515625 5.34375 -8.207031 5.34375 -7.90625 C 5.34375 -6.488281 5.546875 -5.316406 5.953125 -4.390625 C 6.367188 -3.460938 6.90625 -2.78125 7.5625 -2.34375 C 8.21875 -1.914062 8.898438 -1.703125 9.609375 -1.703125 C 10.078125 -1.703125 10.554688 -1.769531 11.046875 -1.90625 C 11.546875 -2.050781 12.03125 -2.316406 12.5 -2.703125 C 12.976562 -3.097656 13.410156 -3.660156 13.796875 -4.390625 L 14.390625 -4.140625 C 14.160156 -3.421875 13.78125 -2.703125 13.25 -1.984375 C 12.726562 -1.273438 12.054688 -0.691406 11.234375 -0.234375 C 10.410156 0.210938 9.445312 0.4375 8.34375 0.4375 C 6.9375 0.4375 5.695312 0.128906 4.625 -0.484375 C 3.5625 -1.109375 2.726562 -2.03125 2.125 -3.25 C 1.53125 -4.476562 1.234375 -5.976562 1.234375 -7.75 C 1.234375 -9.625 1.546875 -11.195312 2.171875 -12.46875 C 2.804688 -13.75 3.675781 -14.722656 4.78125 -15.390625 C 5.894531 -16.054688 7.160156 -16.390625 8.578125 -16.390625 Z M 8.578125 -16.390625 "/></g></g></g><g fill="#6b6b6b" fill-opacity="1"><g transform="translate(10.355692, 47.496835)"><g><path d="M 1.359375 0 L 1.359375 -8.71875 L 6.015625 -8.71875 L 6.015625 -8.4375 L 1.640625 -8.4375 L 1.640625 -4.5 L 5.75 -4.5 L 5.75 -4.21875 L 1.640625 -4.21875 L 1.640625 -0.265625 L 6.125 -0.265625 L 6.125 0 Z M 1.359375 0 "/></g></g></g><g fill="#6b6b6b" fill-opacity="1"><g transform="translate(17.353054, 47.496835)"><g><path d="M 1.4375 -4.390625 L 1.4375 0 L 1.15625 0 L 1.15625 -6.53125 L 1.4375 -6.53125 L 1.4375 -5.5 L 1.46875 -5.5 C 1.613281 -5.84375 1.863281 -6.113281 2.21875 -6.3125 C 2.570312 -6.519531 2.972656 -6.625 3.421875 -6.625 C 3.859375 -6.625 4.242188 -6.523438 4.578125 -6.328125 C 4.910156 -6.140625 5.171875 -5.878906 5.359375 -5.546875 C 5.554688 -5.210938 5.65625 -4.828125 5.65625 -4.390625 L 5.65625 0 L 5.375 0 L 5.375 -4.390625 C 5.375 -4.972656 5.191406 -5.441406 4.828125 -5.796875 C 4.472656 -6.160156 4.003906 -6.34375 3.421875 -6.34375 C 3.035156 -6.34375 2.691406 -6.257812 2.390625 -6.09375 C 2.085938 -5.925781 1.851562 -5.695312 1.6875 -5.40625 C 1.519531 -5.113281 1.4375 -4.773438 1.4375 -4.390625 Z M 1.4375 -4.390625 "/></g></g></g><g fill="#6b6b6b" fill-opacity="1"><g transform="translate(24.163136, 47.496835)"><g><path d="M 3.609375 0.140625 C 3.035156 0.140625 2.535156 -0.00390625 2.109375 -0.296875 C 1.679688 -0.597656 1.347656 -1.003906 1.109375 -1.515625 C 0.878906 -2.035156 0.765625 -2.613281 0.765625 -3.25 C 0.765625 -3.894531 0.882812 -4.472656 1.125 -4.984375 C 1.363281 -5.492188 1.6875 -5.894531 2.09375 -6.1875 C 2.5 -6.488281 2.957031 -6.640625 3.46875 -6.640625 C 3.976562 -6.640625 4.429688 -6.5 4.828125 -6.21875 C 5.234375 -5.9375 5.550781 -5.5625 5.78125 -5.09375 C 6.019531 -4.625 6.140625 -4.109375 6.140625 -3.546875 L 6.140625 -3.265625 L 1.03125 -3.265625 C 1.039062 -2.691406 1.144531 -2.164062 1.34375 -1.6875 C 1.539062 -1.21875 1.828125 -0.84375 2.203125 -0.5625 C 2.585938 -0.28125 3.054688 -0.140625 3.609375 -0.140625 C 4.015625 -0.140625 4.351562 -0.207031 4.625 -0.34375 C 4.894531 -0.488281 5.113281 -0.648438 5.28125 -0.828125 C 5.445312 -1.015625 5.570312 -1.175781 5.65625 -1.3125 L 5.875 -1.15625 C 5.78125 -0.988281 5.632812 -0.804688 5.4375 -0.609375 C 5.25 -0.410156 5.003906 -0.234375 4.703125 -0.078125 C 4.398438 0.0664062 4.035156 0.140625 3.609375 0.140625 Z M 1.046875 -3.546875 L 5.875 -3.546875 C 5.875 -4.066406 5.765625 -4.539062 5.546875 -4.96875 C 5.328125 -5.394531 5.035156 -5.734375 4.671875 -5.984375 C 4.316406 -6.234375 3.914062 -6.359375 3.46875 -6.359375 C 3.039062 -6.359375 2.648438 -6.234375 2.296875 -5.984375 C 1.941406 -5.742188 1.65625 -5.410156 1.4375 -4.984375 C 1.21875 -4.566406 1.085938 -4.085938 1.046875 -3.546875 Z M 1.046875 -3.546875 "/></g></g></g><g fill="#6b6b6b" fill-opacity="1"><g transform="translate(31.075374, 47.496835)"><g><path d="M 1.15625 0 L 1.15625 -6.53125 L 1.4375 -6.53125 L 1.4375 -5.5 L 1.46875 -5.5 C 1.613281 -5.84375 1.863281 -6.113281 2.21875 -6.3125 C 2.570312 -6.519531 2.972656 -6.625 3.421875 -6.625 C 3.566406 -6.625 3.703125 -6.613281 3.828125 -6.59375 C 3.953125 -6.570312 4.066406 -6.539062 4.171875 -6.5 L 4.0625 -6.25 C 3.875 -6.3125 3.660156 -6.34375 3.421875 -6.34375 C 3.035156 -6.34375 2.691406 -6.257812 2.390625 -6.09375 C 2.085938 -5.925781 1.851562 -5.695312 1.6875 -5.40625 C 1.519531 -5.113281 1.4375 -4.773438 1.4375 -4.390625 L 1.4375 0 Z M 1.15625 0 "/></g></g></g><g fill="#6b6b6b" fill-opacity="1"><g transform="translate(35.212507, 47.496835)"><g><path d="M 3.375 2.59375 C 2.820312 2.59375 2.335938 2.484375 1.921875 2.265625 C 1.515625 2.046875 1.226562 1.71875 1.0625 1.28125 L 1.3125 1.171875 C 1.457031 1.554688 1.710938 1.84375 2.078125 2.03125 C 2.453125 2.21875 2.882812 2.3125 3.375 2.3125 C 4.050781 2.3125 4.578125 2.128906 4.953125 1.765625 C 5.335938 1.410156 5.53125 0.867188 5.53125 0.140625 L 5.53125 -1.640625 L 5.5 -1.640625 C 5.332031 -1.085938 5.039062 -0.675781 4.625 -0.40625 C 4.21875 -0.132812 3.769531 0 3.28125 0 C 2.769531 0 2.328125 -0.132812 1.953125 -0.40625 C 1.578125 -0.6875 1.285156 -1.070312 1.078125 -1.5625 C 0.867188 -2.050781 0.765625 -2.613281 0.765625 -3.25 C 0.765625 -3.894531 0.863281 -4.472656 1.0625 -4.984375 C 1.269531 -5.492188 1.5625 -5.894531 1.9375 -6.1875 C 2.320312 -6.488281 2.769531 -6.640625 3.28125 -6.640625 C 3.8125 -6.640625 4.269531 -6.476562 4.65625 -6.15625 C 5.039062 -5.84375 5.320312 -5.414062 5.5 -4.875 L 5.53125 -4.875 L 5.53125 -6.53125 L 5.8125 -6.53125 L 5.8125 0.140625 C 5.8125 0.941406 5.59375 1.550781 5.15625 1.96875 C 4.71875 2.382812 4.125 2.59375 3.375 2.59375 Z M 3.28125 -0.265625 C 3.96875 -0.265625 4.515625 -0.53125 4.921875 -1.0625 C 5.328125 -1.601562 5.53125 -2.332031 5.53125 -3.25 C 5.53125 -3.84375 5.4375 -4.375 5.25 -4.84375 C 5.070312 -5.3125 4.816406 -5.679688 4.484375 -5.953125 C 4.148438 -6.222656 3.75 -6.359375 3.28125 -6.359375 C 2.820312 -6.359375 2.421875 -6.222656 2.078125 -5.953125 C 1.742188 -5.679688 1.484375 -5.3125 1.296875 -4.84375 C 1.117188 -4.375 1.03125 -3.84375 1.03125 -3.25 C 1.03125 -2.65625 1.125 -2.132812 1.3125 -1.6875 C 1.5 -1.25 1.757812 -0.898438 2.09375 -0.640625 C 2.425781 -0.390625 2.820312 -0.265625 3.28125 -0.265625 Z M 3.28125 -0.265625 "/></g></g></g><g fill="#6b6b6b" fill-opacity="1"><g transform="translate(42.209869, 47.496835)"><g><path d="M 1.40625 2.59375 C 1.1875 2.59375 0.945312 2.535156 0.6875 2.421875 L 0.78125 2.171875 C 1.632812 2.535156 2.242188 2.210938 2.609375 1.203125 L 3 0.125 L 0.609375 -6.53125 L 0.90625 -6.53125 L 3.109375 -0.34375 L 3.15625 -0.34375 L 5.359375 -6.53125 L 5.65625 -6.53125 L 2.859375 1.3125 C 2.546875 2.164062 2.0625 2.59375 1.40625 2.59375 Z M 1.40625 2.59375 "/></g></g></g><g fill="#6b6b6b" fill-opacity="1"><g transform="translate(48.478756, 47.496835)"><g/></g></g><g fill="#6b6b6b" fill-opacity="1"><g transform="translate(51.849751, 47.496835)"><g/></g></g><g fill="#6b6b6b" fill-opacity="1"><g transform="translate(55.220815, 47.496835)"><g><path d="M 7.8125 -5.984375 L 7.53125 -5.984375 C 7.46875 -6.273438 7.359375 -6.570312 7.203125 -6.875 C 7.046875 -7.175781 6.835938 -7.453125 6.578125 -7.703125 C 6.328125 -7.960938 6.023438 -8.171875 5.671875 -8.328125 C 5.316406 -8.484375 4.921875 -8.5625 4.484375 -8.5625 C 3.878906 -8.5625 3.320312 -8.398438 2.8125 -8.078125 C 2.3125 -7.753906 1.90625 -7.28125 1.59375 -6.65625 C 1.289062 -6.03125 1.140625 -5.265625 1.140625 -4.359375 C 1.140625 -3.441406 1.289062 -2.671875 1.59375 -2.046875 C 1.90625 -1.421875 2.3125 -0.945312 2.8125 -0.625 C 3.320312 -0.3125 3.878906 -0.15625 4.484375 -0.15625 C 4.921875 -0.15625 5.316406 -0.226562 5.671875 -0.375 C 6.023438 -0.53125 6.328125 -0.734375 6.578125 -0.984375 C 6.835938 -1.242188 7.046875 -1.523438 7.203125 -1.828125 C 7.359375 -2.128906 7.46875 -2.425781 7.53125 -2.71875 L 7.8125 -2.71875 C 7.757812 -2.414062 7.648438 -2.097656 7.484375 -1.765625 C 7.328125 -1.429688 7.109375 -1.117188 6.828125 -0.828125 C 6.554688 -0.546875 6.222656 -0.316406 5.828125 -0.140625 C 5.441406 0.0351562 4.992188 0.125 4.484375 0.125 C 3.765625 0.125 3.132812 -0.0625 2.59375 -0.4375 C 2.050781 -0.8125 1.628906 -1.332031 1.328125 -2 C 1.023438 -2.675781 0.875 -3.460938 0.875 -4.359375 C 0.875 -5.242188 1.023438 -6.023438 1.328125 -6.703125 C 1.628906 -7.378906 2.050781 -7.898438 2.59375 -8.265625 C 3.132812 -8.640625 3.765625 -8.828125 4.484375 -8.828125 C 4.992188 -8.828125 5.441406 -8.738281 5.828125 -8.5625 C 6.222656 -8.394531 6.554688 -8.164062 6.828125 -7.875 C 7.109375 -7.59375 7.328125 -7.285156 7.484375 -6.953125 C 7.648438 -6.617188 7.757812 -6.296875 7.8125 -5.984375 Z M 7.8125 -5.984375 "/></g></g></g><g fill="#6b6b6b" fill-opacity="1"><g transform="translate(63.886648, 47.496835)"><g><path d="M 1.15625 0 L 1.15625 -6.53125 L 1.4375 -6.53125 L 1.4375 -5.5 L 1.46875 -5.5 C 1.613281 -5.84375 1.863281 -6.113281 2.21875 -6.3125 C 2.570312 -6.519531 2.972656 -6.625 3.421875 -6.625 C 3.566406 -6.625 3.703125 -6.613281 3.828125 -6.59375 C 3.953125 -6.570312 4.066406 -6.539062 4.171875 -6.5 L 4.0625 -6.25 C 3.875 -6.3125 3.660156 -6.34375 3.421875 -6.34375 C 3.035156 -6.34375 2.691406 -6.257812 2.390625 -6.09375 C 2.085938 -5.925781 1.851562 -5.695312 1.6875 -5.40625 C 1.519531 -5.113281 1.4375 -4.773438 1.4375 -4.390625 L 1.4375 0 Z M 1.15625 0 "/></g></g></g><g fill="#6b6b6b" fill-opacity="1"><g transform="translate(68.22808, 47.496835)"><g><path d="M 2.796875 0.140625 C 2.429688 0.140625 2.097656 0.0664062 1.796875 -0.078125 C 1.492188 -0.234375 1.25 -0.453125 1.0625 -0.734375 C 0.882812 -1.015625 0.796875 -1.359375 0.796875 -1.765625 C 0.796875 -2.066406 0.863281 -2.335938 1 -2.578125 C 1.132812 -2.828125 1.378906 -3.035156 1.734375 -3.203125 C 2.085938 -3.378906 2.597656 -3.507812 3.265625 -3.59375 C 3.566406 -3.625 3.847656 -3.660156 4.109375 -3.703125 C 4.378906 -3.753906 4.597656 -3.820312 4.765625 -3.90625 C 4.929688 -4 5.015625 -4.132812 5.015625 -4.3125 L 5.015625 -4.703125 C 5.015625 -5.203125 4.847656 -5.601562 4.515625 -5.90625 C 4.179688 -6.207031 3.734375 -6.359375 3.171875 -6.359375 C 2.710938 -6.359375 2.3125 -6.257812 1.96875 -6.0625 C 1.625 -5.863281 1.382812 -5.578125 1.25 -5.203125 L 0.984375 -5.3125 C 1.140625 -5.71875 1.414062 -6.039062 1.8125 -6.28125 C 2.207031 -6.519531 2.660156 -6.640625 3.171875 -6.640625 C 3.828125 -6.640625 4.34375 -6.453125 4.71875 -6.078125 C 5.101562 -5.710938 5.296875 -5.253906 5.296875 -4.703125 L 5.296875 0 L 5.015625 0 L 5.015625 -1.328125 L 4.984375 -1.328125 C 4.785156 -0.878906 4.492188 -0.519531 4.109375 -0.25 C 3.722656 0.0078125 3.285156 0.140625 2.796875 0.140625 Z M 2.796875 -0.140625 C 3.203125 -0.140625 3.570312 -0.25 3.90625 -0.46875 C 4.25 -0.6875 4.519531 -0.992188 4.71875 -1.390625 C 4.914062 -1.796875 5.015625 -2.265625 5.015625 -2.796875 L 5.015625 -3.78125 C 4.859375 -3.65625 4.640625 -3.5625 4.359375 -3.5 C 4.078125 -3.4375 3.75 -3.382812 3.375 -3.34375 C 2.789062 -3.269531 2.328125 -3.160156 1.984375 -3.015625 C 1.648438 -2.878906 1.414062 -2.707031 1.28125 -2.5 C 1.144531 -2.289062 1.078125 -2.046875 1.078125 -1.765625 C 1.078125 -1.273438 1.238281 -0.878906 1.5625 -0.578125 C 1.894531 -0.285156 2.304688 -0.140625 2.796875 -0.140625 Z M 2.796875 -0.140625 "/></g></g></g><g fill="#6b6b6b" fill-opacity="1"><g transform="translate(74.714687, 47.496835)"><g><path d="M 3.40625 -6.53125 L 3.40625 -6.265625 L 1.984375 -6.265625 L 1.984375 0 L 1.71875 0 L 1.71875 -6.265625 L 0.8125 -6.265625 L 0.8125 -6.53125 L 1.71875 -6.53125 L 1.71875 -7.484375 C 1.71875 -7.941406 1.863281 -8.304688 2.15625 -8.578125 C 2.457031 -8.847656 2.8125 -8.984375 3.21875 -8.984375 C 3.320312 -8.984375 3.414062 -8.972656 3.5 -8.953125 C 3.582031 -8.941406 3.660156 -8.921875 3.734375 -8.890625 L 3.65625 -8.640625 C 3.582031 -8.660156 3.507812 -8.675781 3.4375 -8.6875 C 3.375 -8.707031 3.300781 -8.71875 3.21875 -8.71875 C 2.894531 -8.71875 2.609375 -8.609375 2.359375 -8.390625 C 2.109375 -8.171875 1.984375 -7.867188 1.984375 -7.484375 L 1.984375 -6.53125 Z M 3.40625 -6.53125 "/></g></g></g><g fill="#6b6b6b" fill-opacity="1"><g transform="translate(78.681561, 47.496835)"><g><path d="M 3.203125 -6.53125 L 3.203125 -6.265625 L 1.84375 -6.265625 L 1.84375 -1.375 C 1.84375 -1 1.960938 -0.703125 2.203125 -0.484375 C 2.453125 -0.265625 2.738281 -0.15625 3.0625 -0.15625 C 3.207031 -0.15625 3.351562 -0.179688 3.5 -0.234375 L 3.59375 0.015625 C 3.507812 0.046875 3.425781 0.0703125 3.34375 0.09375 C 3.257812 0.113281 3.164062 0.125 3.0625 0.125 C 2.65625 0.125 2.300781 -0.0078125 2 -0.28125 C 1.707031 -0.550781 1.5625 -0.914062 1.5625 -1.375 L 1.5625 -6.265625 L 0.609375 -6.265625 L 0.609375 -6.53125 L 1.5625 -6.53125 L 1.5625 -8.109375 L 1.84375 -8.109375 L 1.84375 -6.53125 Z M 3.203125 -6.53125 "/></g></g></g><g fill="#6b6b6b" fill-opacity="1"><g transform="translate(82.856232, 47.496835)"><g/></g></g><g fill="#6b6b6b" fill-opacity="1"><g transform="translate(86.227227, 47.496835)"><g/></g></g><g fill="#6b6b6b" fill-opacity="1"><g transform="translate(89.59829, 47.496835)"><g><path d="M 1.359375 0 L 1.359375 -8.71875 L 1.640625 -8.71875 L 1.640625 -4.5 L 7.1875 -4.5 L 7.1875 -8.71875 L 7.453125 -8.71875 L 7.453125 0 L 7.1875 0 L 7.1875 -4.21875 L 1.640625 -4.21875 L 1.640625 0 Z M 1.359375 0 "/></g></g></g><g fill="#6b6b6b" fill-opacity="1"><g transform="translate(98.417351, 47.496835)"><g><path d="M 2.796875 0.140625 C 2.429688 0.140625 2.097656 0.0664062 1.796875 -0.078125 C 1.492188 -0.234375 1.25 -0.453125 1.0625 -0.734375 C 0.882812 -1.015625 0.796875 -1.359375 0.796875 -1.765625 C 0.796875 -2.066406 0.863281 -2.335938 1 -2.578125 C 1.132812 -2.828125 1.378906 -3.035156 1.734375 -3.203125 C 2.085938 -3.378906 2.597656 -3.507812 3.265625 -3.59375 C 3.566406 -3.625 3.847656 -3.660156 4.109375 -3.703125 C 4.378906 -3.753906 4.597656 -3.820312 4.765625 -3.90625 C 4.929688 -4 5.015625 -4.132812 5.015625 -4.3125 L 5.015625 -4.703125 C 5.015625 -5.203125 4.847656 -5.601562 4.515625 -5.90625 C 4.179688 -6.207031 3.734375 -6.359375 3.171875 -6.359375 C 2.710938 -6.359375 2.3125 -6.257812 1.96875 -6.0625 C 1.625 -5.863281 1.382812 -5.578125 1.25 -5.203125 L 0.984375 -5.3125 C 1.140625 -5.71875 1.414062 -6.039062 1.8125 -6.28125 C 2.207031 -6.519531 2.660156 -6.640625 3.171875 -6.640625 C 3.828125 -6.640625 4.34375 -6.453125 4.71875 -6.078125 C 5.101562 -5.710938 5.296875 -5.253906 5.296875 -4.703125 L 5.296875 0 L 5.015625 0 L 5.015625 -1.328125 L 4.984375 -1.328125 C 4.785156 -0.878906 4.492188 -0.519531 4.109375 -0.25 C 3.722656 0.0078125 3.285156 0.140625 2.796875 0.140625 Z M 2.796875 -0.140625 C 3.203125 -0.140625 3.570312 -0.25 3.90625 -0.46875 C 4.25 -0.6875 4.519531 -0.992188 4.71875 -1.390625 C 4.914062 -1.796875 5.015625 -2.265625 5.015625 -2.796875 L 5.015625 -3.78125 C 4.859375 -3.65625 4.640625 -3.5625 4.359375 -3.5 C 4.078125 -3.4375 3.75 -3.382812 3.375 -3.34375 C 2.789062 -3.269531 2.328125 -3.160156 1.984375 -3.015625 C 1.648438 -2.878906 1.414062 -2.707031 1.28125 -2.5 C 1.144531 -2.289062 1.078125 -2.046875 1.078125 -1.765625 C 1.078125 -1.273438 1.238281 -0.878906 1.5625 -0.578125 C 1.894531 -0.285156 2.304688 -0.140625 2.796875 -0.140625 Z M 2.796875 -0.140625 "/></g></g></g><g fill="#6b6b6b" fill-opacity="1"><g transform="translate(104.903958, 47.496835)"><g><path d="M 1.15625 0 L 1.15625 -6.53125 L 1.4375 -6.53125 L 1.4375 -5.5 L 1.46875 -5.5 C 1.613281 -5.84375 1.863281 -6.113281 2.21875 -6.3125 C 2.570312 -6.519531 2.972656 -6.625 3.421875 -6.625 C 3.566406 -6.625 3.703125 -6.613281 3.828125 -6.59375 C 3.953125 -6.570312 4.066406 -6.539062 4.171875 -6.5 L 4.0625 -6.25 C 3.875 -6.3125 3.660156 -6.34375 3.421875 -6.34375 C 3.035156 -6.34375 2.691406 -6.257812 2.390625 -6.09375 C 2.085938 -5.925781 1.851562 -5.695312 1.6875 -5.40625 C 1.519531 -5.113281 1.4375 -4.773438 1.4375 -4.390625 L 1.4375 0 Z M 1.15625 0 "/></g></g></g><g fill="#6b6b6b" fill-opacity="1"><g transform="translate(109.24539, 47.496835)"><g><path d="M 1.15625 0 L 1.15625 -6.53125 L 1.4375 -6.53125 L 1.4375 -5.5625 L 1.46875 -5.5625 C 1.582031 -5.882812 1.789062 -6.140625 2.09375 -6.328125 C 2.40625 -6.523438 2.78125 -6.625 3.21875 -6.625 C 3.707031 -6.625 4.097656 -6.5 4.390625 -6.25 C 4.691406 -6.007812 4.894531 -5.6875 5 -5.28125 L 5.03125 -5.28125 C 5.144531 -5.6875 5.363281 -6.007812 5.6875 -6.25 C 6.019531 -6.5 6.429688 -6.625 6.921875 -6.625 C 7.578125 -6.625 8.0625 -6.414062 8.375 -6 C 8.695312 -5.582031 8.859375 -5.046875 8.859375 -4.390625 L 8.859375 0 L 8.578125 0 L 8.578125 -4.390625 C 8.578125 -4.972656 8.445312 -5.441406 8.1875 -5.796875 C 7.925781 -6.160156 7.503906 -6.34375 6.921875 -6.34375 C 6.347656 -6.34375 5.90625 -6.160156 5.59375 -5.796875 C 5.289062 -5.429688 5.140625 -4.960938 5.140625 -4.390625 L 5.140625 0 L 4.875 0 L 4.875 -4.390625 C 4.875 -4.972656 4.738281 -5.441406 4.46875 -5.796875 C 4.207031 -6.160156 3.789062 -6.34375 3.21875 -6.34375 C 2.632812 -6.34375 2.191406 -6.160156 1.890625 -5.796875 C 1.585938 -5.429688 1.4375 -4.960938 1.4375 -4.390625 L 1.4375 0 Z M 1.15625 0 "/></g></g></g><g fill="#6b6b6b" fill-opacity="1"><g transform="translate(119.256208, 47.496835)"><g><path d="M 3.46875 0.140625 C 2.957031 0.140625 2.5 -0.00390625 2.09375 -0.296875 C 1.6875 -0.597656 1.363281 -1.003906 1.125 -1.515625 C 0.882812 -2.035156 0.765625 -2.613281 0.765625 -3.25 C 0.765625 -3.894531 0.882812 -4.472656 1.125 -4.984375 C 1.363281 -5.492188 1.6875 -5.894531 2.09375 -6.1875 C 2.5 -6.488281 2.957031 -6.640625 3.46875 -6.640625 C 3.988281 -6.640625 4.453125 -6.488281 4.859375 -6.1875 C 5.265625 -5.894531 5.582031 -5.492188 5.8125 -4.984375 C 6.050781 -4.472656 6.171875 -3.894531 6.171875 -3.25 C 6.171875 -2.613281 6.050781 -2.035156 5.8125 -1.515625 C 5.582031 -1.003906 5.265625 -0.597656 4.859375 -0.296875 C 4.453125 -0.00390625 3.988281 0.140625 3.46875 0.140625 Z M 3.46875 -0.140625 C 3.9375 -0.140625 4.351562 -0.273438 4.71875 -0.546875 C 5.082031 -0.816406 5.367188 -1.1875 5.578125 -1.65625 C 5.796875 -2.125 5.90625 -2.65625 5.90625 -3.25 C 5.90625 -3.84375 5.796875 -4.375 5.578125 -4.84375 C 5.367188 -5.3125 5.082031 -5.679688 4.71875 -5.953125 C 4.351562 -6.222656 3.9375 -6.359375 3.46875 -6.359375 C 3.007812 -6.359375 2.597656 -6.222656 2.234375 -5.953125 C 1.867188 -5.679688 1.578125 -5.3125 1.359375 -4.84375 C 1.140625 -4.375 1.03125 -3.84375 1.03125 -3.25 C 1.03125 -2.65625 1.132812 -2.125 1.34375 -1.65625 C 1.5625 -1.1875 1.851562 -0.816406 2.21875 -0.546875 C 2.59375 -0.273438 3.007812 -0.140625 3.46875 -0.140625 Z M 3.46875 -0.140625 "/></g></g></g><g fill="#6b6b6b" fill-opacity="1"><g transform="translate(126.202498, 47.496835)"><g><path d="M 1.4375 -4.390625 L 1.4375 0 L 1.15625 0 L 1.15625 -6.53125 L 1.4375 -6.53125 L 1.4375 -5.5 L 1.46875 -5.5 C 1.613281 -5.84375 1.863281 -6.113281 2.21875 -6.3125 C 2.570312 -6.519531 2.972656 -6.625 3.421875 -6.625 C 3.859375 -6.625 4.242188 -6.523438 4.578125 -6.328125 C 4.910156 -6.140625 5.171875 -5.878906 5.359375 -5.546875 C 5.554688 -5.210938 5.65625 -4.828125 5.65625 -4.390625 L 5.65625 0 L 5.375 0 L 5.375 -4.390625 C 5.375 -4.972656 5.191406 -5.441406 4.828125 -5.796875 C 4.472656 -6.160156 4.003906 -6.34375 3.421875 -6.34375 C 3.035156 -6.34375 2.691406 -6.257812 2.390625 -6.09375 C 2.085938 -5.925781 1.851562 -5.695312 1.6875 -5.40625 C 1.519531 -5.113281 1.4375 -4.773438 1.4375 -4.390625 Z M 1.4375 -4.390625 "/></g></g></g><g fill="#6b6b6b" fill-opacity="1"><g transform="translate(132.774229, 47.496835)"><g><path d="M 1.40625 2.59375 C 1.1875 2.59375 0.945312 2.535156 0.6875 2.421875 L 0.78125 2.171875 C 1.632812 2.535156 2.242188 2.210938 2.609375 1.203125 L 3 0.125 L 0.609375 -6.53125 L 0.90625 -6.53125 L 3.109375 -0.34375 L 3.15625 -0.34375 L 5.359375 -6.53125 L 5.65625 -6.53125 L 2.859375 1.3125 C 2.546875 2.164062 2.0625 2.59375 1.40625 2.59375 Z M 1.40625 2.59375 "/></g></g></g></svg>